<svg width="14" height="14" viewBox="0 0 14 14" fill="none" xmlns="http://www.w3.org/2000/svg">
<path d="M6.25 7.74998H1.25C1.0375 7.74998 0.859375 7.67808 0.715625 7.53428C0.571875 7.39046 0.5 7.21226 0.5 6.99968C0.5 6.78708 0.571875 6.60899 0.715625 6.46541C0.859375 6.32182 1.0375 6.25003 1.25 6.25003H6.25V1.25003C6.25 1.03753 6.3219 0.859406 6.4657 0.715656C6.60952 0.571906 6.78772 0.500031 7.0003 0.500031C7.2129 0.500031 7.39099 0.571906 7.53457 0.715656C7.67816 0.859406 7.74995 1.03753 7.74995 1.25003V6.25003H12.75C12.9625 6.25003 13.1406 6.32193 13.2843 6.46573C13.4281 6.60955 13.5 6.78775 13.5 7.00033C13.5 7.21293 13.4281 7.39102 13.2843 7.53461C13.1406 7.67819 12.9625 7.74998 12.75 7.74998H7.74995V12.75C7.74995 12.9625 7.67805 13.1406 7.53425 13.2844C7.39043 13.4281 7.21223 13.5 6.99965 13.5C6.78705 13.5 6.60896 13.4281 6.46537 13.2844C6.32179 13.1406 6.25 12.9625 6.25 12.75V7.74998Z" fill="#1E1D2B"/>
</svg>
