<svg width="12" height="22" viewBox="0 0 12 22" fill="none" xmlns="http://www.w3.org/2000/svg">
<path d="M2.71535 10.9999L11.5035 19.7881C11.7353 20.0199 11.8483 20.2929 11.8423 20.607C11.8363 20.9211 11.7174 21.194 11.4855 21.4259C11.2537 21.6577 10.9808 21.7736 10.6667 21.7736C10.3525 21.7736 10.0796 21.6577 9.84777 21.4259L0.898095 12.4941C0.687161 12.2832 0.530847 12.0469 0.429153 11.7852C0.327459 11.5234 0.276611 11.2617 0.276611 10.9999C0.276611 10.7382 0.327459 10.4764 0.429153 10.2147C0.530867 9.95294 0.687181 9.71662 0.898095 9.50572L9.84777 0.556048C10.0796 0.324211 10.3555 0.211277 10.6756 0.217247C10.9957 0.223236 11.2717 0.342149 11.5035 0.573985C11.7353 0.805821 11.8513 1.07878 11.8513 1.39287C11.8513 1.70697 11.7353 1.97994 11.5035 2.21178L2.71535 10.9999Z" fill="#8C8B99"/>
</svg>
