<svg width="24" height="24" viewBox="0 0 24 24" fill="none" xmlns="http://www.w3.org/2000/svg">
<mask id="mask0_28_57" style="mask-type:alpha" maskUnits="userSpaceOnUse" x="0" y="0" width="24" height="24">
<rect width="24" height="24" fill="#D9D9D9"/>
</mask>
<g mask="url(#mask0_28_57)">
<path d="M19.4404 20.5C17.5558 20.5 15.6625 20.0618 13.7606 19.1856C11.8587 18.3093 10.1112 17.0731 8.5183 15.4769C6.92535 13.8808 5.69074 12.1333 4.81445 10.2346C3.93817 8.33592 3.50003 6.44426 3.50003 4.55966C3.50003 4.25691 3.60003 4.00462 3.80003 3.80278C4.00003 3.60095 4.25003 3.50003 4.55003 3.50003H7.81153C8.06409 3.50003 8.28685 3.58241 8.4798 3.74716C8.67275 3.91191 8.7955 4.11543 8.84805 4.35773L9.42113 7.30001C9.46088 7.57309 9.45254 7.80771 9.39613 8.00386C9.33973 8.20001 9.23844 8.36475 9.09228 8.49808L6.78268 10.7462C7.15448 11.4269 7.57916 12.0708 8.05673 12.6779C8.53429 13.2849 9.05128 13.8648 9.60768 14.4173C10.1564 14.966 10.7398 15.4757 11.3577 15.9462C11.9757 16.4167 12.643 16.8545 13.3596 17.2596L15.6039 14.9962C15.7603 14.8334 15.9497 14.7193 16.1721 14.6539C16.3946 14.5885 16.6257 14.5725 16.8654 14.6058L19.6423 15.1712C19.8948 15.2378 20.1009 15.3667 20.2606 15.5577C20.4202 15.7487 20.5 15.9654 20.5 16.2077V19.45C20.5 19.75 20.3991 20 20.1972 20.2C19.9954 20.4 19.7431 20.5 19.4404 20.5ZM6.07308 9.32696L7.8577 7.61926C7.88975 7.59361 7.91059 7.55835 7.9202 7.51348C7.92982 7.4686 7.92822 7.42693 7.9154 7.38848L7.48078 5.15386C7.46796 5.10257 7.44553 5.06411 7.41348 5.03848C7.38143 5.01283 7.33976 5.00001 7.28848 5.00001H5.15C5.11155 5.00001 5.0795 5.01283 5.05385 5.03848C5.0282 5.06411 5.01538 5.09616 5.01538 5.13463C5.06666 5.81796 5.17852 6.5122 5.35095 7.21733C5.5234 7.92246 5.76411 8.62567 6.07308 9.32696ZM14.7731 17.9692C15.4359 18.2782 16.1272 18.5144 16.8471 18.6779C17.567 18.8414 18.2397 18.9385 18.8654 18.9692C18.9038 18.9692 18.9359 18.9564 18.9615 18.9308C18.9872 18.9051 19 18.8731 19 18.8346V16.7308C19 16.6795 18.9872 16.6378 18.9615 16.6058C18.9359 16.5737 18.8974 16.5513 18.8462 16.5385L16.7462 16.1115C16.7077 16.0987 16.6741 16.0971 16.6452 16.1067C16.6164 16.1163 16.5859 16.1372 16.5539 16.1692L14.7731 17.9692Z" fill="#59CAD4"/>
</g>
</svg>
