<svg width="32" height="32" viewBox="0 0 32 32" fill="none" xmlns="http://www.w3.org/2000/svg">
<mask id="mask0_2_3757" style="mask-type:alpha" maskUnits="userSpaceOnUse" x="0" y="0" width="32" height="32">
<rect width="32" height="32" fill="#D9D9D9"/>
</mask>
<g mask="url(#mask0_2_3757)">
<path d="M4.00023 26.3333C3.51819 26.3333 3.20281 26.1047 3.0541 25.6474C2.90539 25.1902 3.02248 24.8197 3.40537 24.5359L15.0003 15.8333V13.3333C15.0003 13.0581 15.0904 12.8227 15.2708 12.6269C15.4511 12.4312 15.6831 12.3334 15.9669 12.3334C16.6387 12.3556 17.2011 12.1402 17.6541 11.6872C18.1071 11.2342 18.3336 10.6718 18.3336 9.99999C18.3336 9.35897 18.1105 8.80981 17.6644 8.35252C17.2182 7.89525 16.6746 7.66662 16.0336 7.66662C15.5652 7.66662 15.131 7.80039 14.731 8.06792C14.331 8.33543 14.0404 8.688 13.8592 9.12562C13.7737 9.31022 13.6532 9.44654 13.4977 9.53459C13.3421 9.62261 13.1652 9.66662 12.9669 9.66662C12.5977 9.66662 12.3195 9.51449 12.1323 9.21022C11.9451 8.90595 11.9259 8.58289 12.0746 8.24102C12.4268 7.45642 12.9528 6.83121 13.6528 6.36539C14.3528 5.89959 15.1353 5.66669 16.0002 5.66669C17.2037 5.66669 18.2267 6.07908 19.0694 6.90386C19.9122 7.72863 20.3335 8.73845 20.3335 9.93332C20.3335 11.0171 20.0224 11.9402 19.4002 12.7026C18.778 13.4649 17.978 13.9632 17.0002 14.1974V15.8333L28.5951 24.5359C28.978 24.8197 29.0951 25.1902 28.9464 25.6474C28.7977 26.1047 28.4823 26.3333 28.0002 26.3333H4.00023ZM7.00017 24.3334H25.0003L16.0002 17.5769L7.00017 24.3334Z" fill="white"/>
</g>
</svg>
