<svg width="128" height="128" viewBox="0 0 128 128" fill="none" xmlns="http://www.w3.org/2000/svg">
<path d="M54.5382 78.3076L39.0508 62.8205C38.1278 61.8974 36.9676 61.4251 35.5702 61.4038C34.1727 61.3824 32.9911 61.8546 32.0253 62.8205C31.0596 63.7862 30.5767 64.9571 30.5767 66.3331C30.5767 67.7091 31.0596 68.88 32.0253 69.8458L50.3202 88.1406C51.5253 89.3457 52.9313 89.9483 54.5382 89.9483C56.145 89.9483 57.5509 89.3457 58.756 88.1406L95.8457 51.051C96.7688 50.128 97.241 48.9677 97.2624 47.5703C97.2838 46.1729 96.8116 44.9912 95.8457 44.0255C94.8799 43.0597 93.709 42.5768 92.333 42.5768C90.957 42.5768 89.7861 43.0597 88.8204 44.0255L54.5382 78.3076ZM64.0108 127.333C55.2513 127.333 47.0177 125.671 39.3102 122.346C31.6025 119.022 24.898 114.51 19.1965 108.811C13.495 103.112 8.98123 96.4107 5.65534 88.7065C2.32945 81.0024 0.666504 72.7705 0.666504 64.011C0.666504 55.2514 2.32873 47.0179 5.65317 39.3103C8.97762 31.6026 13.4893 24.8981 19.1882 19.1966C24.8872 13.4951 31.5888 8.98136 39.293 5.65547C46.9971 2.32958 55.229 0.666626 63.9885 0.666626C72.7481 0.666626 80.9816 2.32886 88.6892 5.6533C96.3969 8.97775 103.101 13.4894 108.803 19.1883C114.504 24.8873 119.018 31.5889 122.344 39.2931C125.67 46.9972 127.333 55.2291 127.333 63.9886C127.333 72.7482 125.671 80.9817 122.346 88.6893C119.022 96.397 114.51 103.102 108.811 108.803C103.112 114.505 96.4106 119.018 88.7064 122.344C81.0022 125.67 72.7704 127.333 64.0108 127.333ZM63.9997 117.333C78.8886 117.333 91.4997 112.166 101.833 101.833C112.166 91.4998 117.333 78.8887 117.333 63.9998C117.333 49.1109 112.166 36.4998 101.833 26.1665C91.4997 15.8331 78.8886 10.6665 63.9997 10.6665C49.1108 10.6665 36.4997 15.8331 26.1663 26.1665C15.833 36.4998 10.6663 49.1109 10.6663 63.9998C10.6663 78.8887 15.833 91.4998 26.1663 101.833C36.4997 112.166 49.1108 117.333 63.9997 117.333Z" fill="#59CAD4"/>
</svg>
