<svg width="14" height="14" viewBox="0 0 14 14" fill="none" xmlns="http://www.w3.org/2000/svg">
<path d="M7.00003 13.2666C6.84362 13.2666 6.69242 13.2361 6.54643 13.175C6.40043 13.1139 6.26702 13.0273 6.1462 12.9153L1.08468 7.85382C0.972671 7.733 0.886121 7.59959 0.825032 7.45359C0.763943 7.3076 0.733398 7.1564 0.733398 6.99999C0.733398 6.84358 0.763526 6.69059 0.823782 6.54102C0.884037 6.39144 0.971004 6.25982 1.08468 6.14615L6.1462 1.08464C6.26702 0.962447 6.40043 0.873352 6.54643 0.817352C6.69242 0.761352 6.84362 0.733353 7.00003 0.733353C7.15644 0.733353 7.30943 0.761769 7.459 0.818603C7.60858 0.875447 7.7402 0.964124 7.85386 1.08464L12.9154 6.14615C13.0359 6.25982 13.1246 6.39093 13.1814 6.53949C13.2382 6.68803 13.2667 6.84153 13.2667 6.99999C13.2667 7.1564 13.2387 7.3076 13.1827 7.45359C13.1267 7.59959 13.0376 7.733 12.9154 7.85382L7.85386 12.9153C7.7402 13.029 7.60909 13.116 7.46053 13.1762C7.31199 13.2365 7.15849 13.2666 7.00003 13.2666ZM7.14748 12.2025L12.2026 7.14744C12.2368 7.11325 12.2539 7.0641 12.2539 6.99999C12.2539 6.93587 12.2368 6.88672 12.2026 6.85254L7.14748 1.79744C7.11329 1.76325 7.06414 1.74615 7.00003 1.74615C6.93592 1.74615 6.88677 1.76325 6.85258 1.79744L1.79748 6.85254C1.76329 6.88672 1.7462 6.93587 1.7462 6.99999C1.7462 7.0641 1.76329 7.11325 1.79748 7.14744L6.85258 12.2025C6.88677 12.2367 6.93592 12.2538 7.00003 12.2538C7.06414 12.2538 7.11329 12.2367 7.14748 12.2025ZM7.00025 7.72435C7.14198 7.72435 7.26071 7.67644 7.35643 7.5806C7.45215 7.48477 7.50002 7.36603 7.50002 7.22437V4.48077C7.50002 4.3391 7.45208 4.22035 7.35622 4.12452C7.26034 4.0287 7.14154 3.98079 6.99981 3.98079C6.85808 3.98079 6.73935 4.0287 6.64363 4.12452C6.54791 4.22035 6.50005 4.3391 6.50005 4.48077V7.22437C6.50005 7.36603 6.54798 7.48477 6.64385 7.5806C6.73973 7.67644 6.85853 7.72435 7.00025 7.72435ZM7.00003 9.46792C7.1526 9.46792 7.28048 9.41632 7.38368 9.31312C7.48688 9.20991 7.53848 9.08203 7.53848 8.92947C7.53848 8.7769 7.48688 8.64902 7.38368 8.54582C7.28048 8.44262 7.1526 8.39102 7.00003 8.39102C6.84747 8.39102 6.71958 8.44262 6.61638 8.54582C6.51318 8.64902 6.46158 8.7769 6.46158 8.92947C6.46158 9.08203 6.51318 9.20991 6.61638 9.31312C6.71958 9.41632 6.84747 9.46792 7.00003 9.46792Z" fill="#EC2B2B"/>
</svg>
