<svg width="320" height="119" viewBox="0 0 320 119" fill="none" xmlns="http://www.w3.org/2000/svg">
<rect width="320" height="119" rx="16" fill="#DEF4F6"/>
<mask id="mask0_2_696" style="mask-type:alpha" maskUnits="userSpaceOnUse" x="24" y="27" width="64" height="65">
<rect x="24" y="27.5" width="64" height="64" fill="#D9D9D9"/>
</mask>
<g mask="url(#mask0_2_696)">
<path d="M56 44.3125C54.3889 44.3125 53.0139 43.7359 51.875 42.5828C50.7361 41.4297 50.1667 40.0375 50.1667 38.4062C50.1667 36.775 50.7361 35.3828 51.875 34.2297C53.0139 33.0766 54.3889 32.5 56 32.5C57.6111 32.5 58.9861 33.0766 60.125 34.2297C61.2639 35.3828 61.8333 36.775 61.8333 38.4062C61.8333 40.0375 61.2639 41.4297 60.125 42.5828C58.9861 43.7359 57.6111 44.3125 56 44.3125ZM52.6667 86.5C51.7222 86.5 50.9306 86.1766 50.2917 85.5297C49.6528 84.8828 49.3333 84.0812 49.3333 83.125V69.625C48.4444 69.625 47.6667 69.2875 47 68.6125C46.3333 67.9375 46 67.15 46 66.25V54.4375C46 52.5812 46.6528 50.9922 47.9583 49.6703C49.2639 48.3484 50.8333 47.6875 52.6667 47.6875H59.3333C61.1667 47.6875 62.7361 48.3484 64.0417 49.6703C65.3472 50.9922 66 52.5812 66 54.4375V66.25C66 67.15 65.6667 67.9375 65 68.6125C64.3333 69.2875 63.5556 69.625 62.6667 69.625V83.125C62.6667 84.0812 62.3472 84.8828 61.7083 85.5297C61.0694 86.1766 60.2778 86.5 59.3333 86.5H52.6667Z" fill="#59CAD4"/>
</g>
<path d="M109.175 27.196V42.428H107.067V27.196H109.175ZM98.244 37.192V30.29H96.884V28.624H105.435V30.29H104.092V36.954C104.613 36.9087 105.265 36.8463 106.047 36.767L106.183 38.297C104.755 38.535 103.276 38.6937 101.746 38.773C100.227 38.8523 98.5387 38.8977 96.68 38.909L96.476 37.192H98.244ZM100.267 37.141C101.06 37.1183 101.655 37.0957 102.052 37.073V30.29H100.267V37.141ZM117.216 38.909V36.07H112.864V28.148H114.955V30.528H121.585V28.148H123.676V36.07H119.324V38.909H125.189V40.626H111.402V38.909H117.216ZM121.585 34.387V32.194H114.955V34.387H121.585ZM132.058 29.1V27.332H134.183V29.1H139.385V30.783H126.856V29.1H132.058ZM126.261 39.147H132.058V37.362C130.777 37.26 129.774 36.954 129.049 36.444C128.323 35.9227 127.961 35.2483 127.961 34.421C127.961 33.503 128.42 32.7833 129.338 32.262C130.256 31.7293 131.508 31.463 133.095 31.463C134.693 31.463 135.951 31.7293 136.869 32.262C137.787 32.7833 138.246 33.503 138.246 34.421C138.246 35.2483 137.889 35.917 137.175 36.427C136.461 36.937 135.463 37.2487 134.183 37.362V39.147H140.048V40.847H126.261V39.147ZM130.103 34.421C130.103 34.863 130.358 35.1973 130.868 35.424C131.378 35.6507 132.12 35.764 133.095 35.764C134.069 35.764 134.812 35.6507 135.322 35.424C135.832 35.1973 136.087 34.863 136.087 34.421C136.087 33.979 135.832 33.6503 135.322 33.435C134.812 33.2083 134.069 33.095 133.095 33.095C132.12 33.095 131.378 33.2083 130.868 33.435C130.358 33.6503 130.103 33.979 130.103 34.421ZM149.721 28.658V30.392H146.661V31.361C146.661 32.1543 146.803 32.9533 147.086 33.758C147.37 34.5627 147.789 35.2993 148.344 35.968C148.9 36.6367 149.574 37.1523 150.367 37.515L149.211 39.181C148.384 38.7957 147.664 38.2403 147.052 37.515C146.452 36.7897 145.981 35.951 145.641 34.999C145.29 36.0417 144.803 36.9597 144.179 37.753C143.556 38.5463 142.819 39.147 141.969 39.555L140.779 37.889C141.573 37.515 142.253 36.9767 142.819 36.274C143.386 35.5713 143.817 34.7893 144.111 33.928C144.406 33.0667 144.553 32.211 144.553 31.361V30.392H141.357V28.658H149.721ZM150.894 27.196H153.002V33.044H155.246V34.778H153.002V42.428H150.894V27.196Z" fill="#1E1D2B"/>
<path d="M100.83 56.435C101.49 56.435 102.085 56.555 102.615 56.795C103.145 57.025 103.555 57.355 103.845 57.785C104.145 58.205 104.295 58.69 104.295 59.24C104.295 59.78 104.145 60.265 103.845 60.695C103.555 61.115 103.145 61.445 102.615 61.685C102.085 61.925 101.49 62.045 100.83 62.045C100.17 62.045 99.575 61.925 99.045 61.685C98.525 61.445 98.115 61.115 97.815 60.695C97.525 60.265 97.38 59.78 97.38 59.24C97.38 58.69 97.525 58.205 97.815 57.785C98.115 57.355 98.525 57.025 99.045 56.795C99.575 56.555 100.17 56.435 100.83 56.435ZM96.51 62.975C98.14 62.975 99.66 62.945 101.07 62.885C102.49 62.825 103.835 62.695 105.105 62.495L105.21 63.695C104.19 63.895 103.02 64.045 101.7 64.145V68.795H100.08V64.25C99 64.29 97.875 64.31 96.705 64.31L96.51 62.975ZM98.925 59.24C98.925 59.69 99.1 60.05 99.45 60.32C99.81 60.58 100.27 60.71 100.83 60.71C101.4 60.71 101.86 60.58 102.21 60.32C102.57 60.05 102.75 59.69 102.75 59.24C102.75 58.79 102.57 58.43 102.21 58.16C101.86 57.89 101.4 57.755 100.83 57.755C100.27 57.755 99.81 57.89 99.45 58.16C99.1 58.43 98.925 58.79 98.925 59.24ZM105.96 55.865H107.55V69.2H105.96V55.865ZM112.71 63.47V65.03H118.605V63.47H120.195V69.05H111.12V63.47H112.71ZM109.62 61.16H118.305C118.445 60.52 118.535 59.935 118.575 59.405C118.615 58.875 118.635 58.315 118.635 57.725H111.135V56.42H120.225V57.455C120.225 58.155 120.205 58.775 120.165 59.315C120.135 59.855 120.05 60.47 119.91 61.16H121.695V62.48H109.62V61.16ZM118.605 67.76V66.275H112.71V67.76H118.605ZM131.153 56.945V59.075C131.153 59.895 131.288 60.695 131.558 61.475C131.838 62.255 132.238 62.95 132.758 63.56C133.278 64.16 133.883 64.615 134.573 64.925L133.628 66.23C132.878 65.88 132.223 65.37 131.663 64.7C131.113 64.02 130.683 63.23 130.373 62.33C130.063 63.29 129.623 64.135 129.053 64.865C128.483 65.595 127.803 66.145 127.013 66.515L126.053 65.18C126.753 64.86 127.368 64.385 127.898 63.755C128.428 63.125 128.833 62.405 129.113 61.595C129.393 60.775 129.533 59.935 129.533 59.075V56.945H131.153ZM135.548 55.85H137.168V69.23H135.548V55.85ZM147.975 66.26V63.62H144.105V56.75H145.695V58.94H151.875V56.75H153.465V63.62H149.58V66.26H154.83V67.58H142.755V66.26H147.975ZM151.875 62.345V60.215H145.695V62.345H151.875ZM161.085 57.635V56.03H162.69V57.635H167.34V58.925H156.42V57.635H161.085ZM155.865 66.44H161.085V64.76C159.935 64.68 159.035 64.42 158.385 63.98C157.745 63.53 157.425 62.94 157.425 62.21C157.425 61.4 157.82 60.77 158.61 60.32C159.41 59.87 160.5 59.645 161.88 59.645C163.25 59.645 164.33 59.875 165.12 60.335C165.92 60.785 166.32 61.41 166.32 62.21C166.32 62.94 166 63.53 165.36 63.98C164.72 64.42 163.83 64.68 162.69 64.76V66.44H167.94V67.745H155.865V66.44ZM159.06 62.21C159.06 62.64 159.3 62.97 159.78 63.2C160.27 63.42 160.97 63.53 161.88 63.53C162.78 63.53 163.47 63.42 163.95 63.2C164.44 62.97 164.685 62.64 164.685 62.21C164.685 61.78 164.44 61.455 163.95 61.235C163.47 61.005 162.78 60.89 161.88 60.89C160.98 60.89 160.285 61.005 159.795 61.235C159.305 61.455 159.06 61.78 159.06 62.21ZM176.476 57.17V58.52H173.701V59.675C173.701 60.365 173.836 61.07 174.106 61.79C174.376 62.5 174.761 63.145 175.261 63.725C175.771 64.305 176.361 64.75 177.031 65.06L176.131 66.335C175.401 65.995 174.761 65.49 174.211 64.82C173.661 64.15 173.231 63.385 172.921 62.525C172.611 63.465 172.171 64.3 171.601 65.03C171.041 65.76 170.391 66.305 169.651 66.665L168.721 65.405C169.391 65.075 169.981 64.605 170.491 63.995C171.011 63.375 171.411 62.685 171.691 61.925C171.971 61.165 172.111 60.415 172.111 59.675V58.52H169.216V57.17H176.476ZM177.721 55.865H179.341V61.085H181.381V62.42H179.341V69.2H177.721V55.865ZM193.486 55.865V69.2H191.941V55.865H193.486ZM182.221 61.625C182.221 60.655 182.336 59.815 182.566 59.105C182.806 58.385 183.141 57.835 183.571 57.455C184.001 57.065 184.501 56.87 185.071 56.87C185.871 56.87 186.526 57.23 187.036 57.95C187.546 58.66 187.841 59.64 187.921 60.89H189.256V56.12H190.771V68.57H189.256V62.195H187.936C187.866 63.495 187.576 64.52 187.066 65.27C186.556 66.02 185.891 66.395 185.071 66.395C184.501 66.395 184.001 66.205 183.571 65.825C183.141 65.435 182.806 64.88 182.566 64.16C182.336 63.44 182.221 62.595 182.221 61.625ZM183.691 61.625C183.691 62.665 183.811 63.47 184.051 64.04C184.291 64.6 184.631 64.88 185.071 64.88C185.521 64.88 185.866 64.6 186.106 64.04C186.356 63.48 186.481 62.675 186.481 61.625C186.481 60.585 186.356 59.79 186.106 59.24C185.866 58.68 185.521 58.4 185.071 58.4C184.631 58.4 184.291 58.68 184.051 59.24C183.811 59.79 183.691 60.585 183.691 61.625ZM206.612 55.865V69.2H205.067V55.865H206.612ZM195.092 65.24C196.442 64.44 197.457 63.51 198.137 62.45C198.817 61.39 199.217 60.17 199.337 58.79H195.752V57.485H200.957C200.957 58.805 200.782 60.02 200.432 61.13H202.277V56.18H203.792V68.555H202.277V62.405H199.907C199.117 63.995 197.822 65.325 196.022 66.395L195.092 65.24ZM222.384 56.84V58.13H214.839V61.925H222.519V63.23H218.589V66.29H223.839V67.61H211.764V66.29H216.984V63.23H213.234V56.84H222.384ZM230.904 56.075C231.874 56.075 232.714 56.18 233.424 56.39C234.144 56.59 234.699 56.885 235.089 57.275C235.479 57.655 235.674 58.105 235.674 58.625C235.674 59.415 235.244 60.035 234.384 60.485C233.524 60.935 232.364 61.16 230.904 61.16C229.434 61.16 228.269 60.935 227.409 60.485C226.559 60.035 226.134 59.415 226.134 58.625C226.134 58.105 226.324 57.655 226.704 57.275C227.094 56.885 227.649 56.59 228.369 56.39C229.089 56.18 229.934 56.075 230.904 56.075ZM224.874 61.985H236.919V63.275H231.699V64.565H235.464V69.035H226.314V64.565H230.094V63.275H224.874V61.985ZM227.799 58.625C227.799 59.045 228.069 59.365 228.609 59.585C229.159 59.805 229.924 59.915 230.904 59.915C231.884 59.915 232.644 59.805 233.184 59.585C233.734 59.365 234.009 59.045 234.009 58.625C234.009 58.205 233.734 57.885 233.184 57.665C232.644 57.435 231.884 57.32 230.904 57.32C229.924 57.32 229.159 57.435 228.609 57.665C228.069 57.885 227.799 58.205 227.799 58.625ZM233.889 67.76V65.84H227.889V67.76H233.889ZM244.015 56.075C245.515 56.075 246.685 56.275 247.525 56.675C248.365 57.065 248.785 57.625 248.785 58.355C248.785 59.095 248.365 59.665 247.525 60.065C246.695 60.455 245.525 60.65 244.015 60.65C242.505 60.65 241.33 60.455 240.49 60.065C239.66 59.665 239.245 59.095 239.245 58.355C239.245 57.625 239.66 57.065 240.49 56.675C241.33 56.275 242.505 56.075 244.015 56.075ZM237.985 61.4H250.03V62.675H237.985V61.4ZM239.395 63.59H248.53V66.83H241.015V67.865H248.92V69.095H239.425V65.705H246.955V64.805H239.395V63.59ZM240.91 58.355C240.91 59.095 241.945 59.465 244.015 59.465C246.085 59.465 247.12 59.095 247.12 58.355C247.12 57.995 246.855 57.725 246.325 57.545C245.795 57.355 245.025 57.26 244.015 57.26C243.005 57.26 242.235 57.355 241.705 57.545C241.175 57.725 240.91 57.995 240.91 58.355ZM257.342 66.26V62.84C256.802 62.53 256.387 62.145 256.097 61.685C255.807 61.215 255.662 60.69 255.662 60.11C255.662 59.41 255.872 58.795 256.292 58.265C256.712 57.725 257.292 57.31 258.032 57.02C258.782 56.73 259.632 56.585 260.582 56.585C261.532 56.585 262.377 56.73 263.117 57.02C263.867 57.31 264.452 57.725 264.872 58.265C265.292 58.795 265.502 59.41 265.502 60.11C265.502 60.68 265.357 61.2 265.067 61.67C264.777 62.14 264.367 62.53 263.837 62.84V66.26H266.627V67.565H254.552V66.26H257.342ZM257.237 60.11C257.237 60.8 257.542 61.35 258.152 61.76C258.772 62.16 259.582 62.36 260.582 62.36C261.582 62.36 262.387 62.16 262.997 61.76C263.617 61.35 263.927 60.8 263.927 60.11C263.927 59.42 263.617 58.875 262.997 58.475C262.387 58.065 261.582 57.86 260.582 57.86C259.582 57.86 258.772 58.065 258.152 58.475C257.542 58.875 257.237 59.42 257.237 60.11ZM262.217 66.26V63.44C261.687 63.55 261.142 63.605 260.582 63.605C260.022 63.605 259.477 63.55 258.947 63.44V66.26H262.217ZM270.797 57.335V55.82H272.402V57.335H275.162V58.625H272.402V58.685C272.402 59.465 272.682 60.175 273.242 60.815C273.812 61.455 274.602 61.915 275.612 62.195L274.877 63.44C274.127 63.23 273.477 62.915 272.927 62.495C272.377 62.065 271.947 61.555 271.637 60.965C271.337 61.635 270.907 62.215 270.347 62.705C269.797 63.185 269.142 63.545 268.382 63.785L267.602 62.525C268.612 62.215 269.397 61.71 269.957 61.01C270.517 60.31 270.797 59.535 270.797 58.685V58.625H268.007V57.335H270.797ZM269.747 66.695C269.747 65.915 270.147 65.305 270.947 64.865C271.757 64.425 272.867 64.205 274.277 64.205C275.677 64.205 276.777 64.425 277.577 64.865C278.377 65.305 278.777 65.915 278.777 66.695C278.777 67.475 278.377 68.085 277.577 68.525C276.777 68.965 275.677 69.185 274.277 69.185C272.867 69.185 271.757 68.965 270.947 68.525C270.147 68.085 269.747 67.475 269.747 66.695ZM271.367 66.695C271.367 67.105 271.617 67.42 272.117 67.64C272.617 67.85 273.337 67.955 274.277 67.955C275.197 67.955 275.907 67.845 276.407 67.625C276.917 67.405 277.172 67.095 277.172 66.695C277.172 66.295 276.922 65.99 276.422 65.78C275.922 65.56 275.207 65.45 274.277 65.45C273.337 65.45 272.617 65.56 272.117 65.78C271.617 65.99 271.367 66.295 271.367 66.695ZM274.787 59.525H277.112V55.865H278.732V63.92H277.112V60.83H274.787V59.525ZM291.153 55.865V61.19H293.178V62.525H291.153V69.2H289.533V55.865H291.153ZM280.698 57.905H283.833V56.06H285.468V57.905H288.528V59.195H280.698V57.905ZM281.328 63.23C281.328 62.63 281.473 62.095 281.763 61.625C282.053 61.145 282.448 60.775 282.948 60.515C283.458 60.245 284.028 60.11 284.658 60.11C285.288 60.11 285.853 60.245 286.353 60.515C286.863 60.775 287.258 61.145 287.538 61.625C287.828 62.095 287.973 62.63 287.973 63.23C287.973 63.84 287.828 64.385 287.538 64.865C287.258 65.335 286.863 65.705 286.353 65.975C285.853 66.235 285.288 66.365 284.658 66.365C284.028 66.365 283.458 66.235 282.948 65.975C282.448 65.705 282.053 65.33 281.763 64.85C281.473 64.37 281.328 63.83 281.328 63.23ZM282.873 63.23C282.873 63.78 283.038 64.22 283.368 64.55C283.698 64.88 284.128 65.045 284.658 65.045C285.178 65.045 285.603 64.88 285.933 64.55C286.263 64.22 286.428 63.78 286.428 63.23C286.428 62.69 286.263 62.255 285.933 61.925C285.603 61.595 285.178 61.43 284.658 61.43C284.128 61.43 283.698 61.595 283.368 61.925C283.038 62.255 282.873 62.69 282.873 63.23ZM304.953 55.85V69.23H303.348V63.725H300.903V62.435H303.348V60.095H300.963V58.775H303.348V55.85H304.953ZM294.318 57.02H300.228V62.015H295.953V64.865C296.903 64.855 297.773 64.825 298.563 64.775C299.363 64.725 300.183 64.635 301.023 64.505L301.158 65.825C300.228 65.975 299.328 66.075 298.458 66.125C297.588 66.175 296.563 66.2 295.383 66.2H294.348V60.725H298.623V58.31H294.318V57.02ZM107.505 78.85V92.23H105.885V78.85H107.505ZM96.93 84.535C96.93 83.595 97.075 82.77 97.365 82.06C97.665 81.34 98.075 80.79 98.595 80.41C99.115 80.02 99.71 79.825 100.38 79.825C101.05 79.825 101.645 80.02 102.165 80.41C102.685 80.79 103.09 81.34 103.38 82.06C103.68 82.77 103.83 83.595 103.83 84.535C103.83 85.485 103.68 86.32 103.38 87.04C103.09 87.75 102.685 88.3 102.165 88.69C101.645 89.08 101.05 89.275 100.38 89.275C99.71 89.275 99.115 89.08 98.595 88.69C98.075 88.3 97.665 87.75 97.365 87.04C97.075 86.32 96.93 85.485 96.93 84.535ZM98.49 84.535C98.49 85.555 98.66 86.355 99 86.935C99.35 87.515 99.81 87.805 100.38 87.805C100.95 87.805 101.41 87.515 101.76 86.935C102.11 86.355 102.285 85.555 102.285 84.535C102.285 83.525 102.11 82.735 101.76 82.165C101.41 81.585 100.95 81.295 100.38 81.295C99.81 81.295 99.35 81.585 99 82.165C98.66 82.735 98.49 83.525 98.49 84.535ZM116.182 79.585C116.772 79.585 117.297 79.715 117.757 79.975C118.217 80.235 118.577 80.6 118.837 81.07C119.097 81.53 119.227 82.06 119.227 82.66C119.227 83.25 119.097 83.78 118.837 84.25C118.577 84.71 118.217 85.07 117.757 85.33C117.297 85.58 116.772 85.705 116.182 85.705C115.602 85.705 115.082 85.58 114.622 85.33C114.162 85.07 113.802 84.71 113.542 84.25C113.282 83.78 113.152 83.25 113.152 82.66C113.152 82.06 113.282 81.53 113.542 81.07C113.802 80.6 114.162 80.235 114.622 79.975C115.082 79.715 115.602 79.585 116.182 79.585ZM114.607 82.66C114.607 83.19 114.752 83.615 115.042 83.935C115.342 84.245 115.722 84.4 116.182 84.4C116.642 84.4 117.022 84.245 117.322 83.935C117.622 83.615 117.772 83.19 117.772 82.66C117.772 82.13 117.622 81.705 117.322 81.385C117.032 81.065 116.652 80.905 116.182 80.905C115.722 80.905 115.342 81.065 115.042 81.385C114.752 81.705 114.607 82.13 114.607 82.66ZM115.447 86.695H117.052V88.06H122.797V86.695H124.387V92.035H115.447V86.695ZM122.797 90.745V89.32H117.052V90.745H122.797ZM120.007 79.12H121.522V81.76H122.842V78.88H124.387V86.125H122.842V83.08H121.522V86.035H120.007V79.12ZM132.218 79.075C133.718 79.075 134.888 79.275 135.728 79.675C136.568 80.065 136.988 80.625 136.988 81.355C136.988 82.095 136.568 82.665 135.728 83.065C134.898 83.455 133.728 83.65 132.218 83.65C130.708 83.65 129.533 83.455 128.693 83.065C127.863 82.665 127.448 82.095 127.448 81.355C127.448 80.625 127.863 80.065 128.693 79.675C129.533 79.275 130.708 79.075 132.218 79.075ZM126.188 84.4H138.233V85.675H126.188V84.4ZM127.598 86.59H136.733V89.83H129.218V90.865H137.123V92.095H127.628V88.705H135.158V87.805H127.598V86.59ZM129.113 81.355C129.113 82.095 130.148 82.465 132.218 82.465C134.288 82.465 135.323 82.095 135.323 81.355C135.323 80.995 135.058 80.725 134.528 80.545C133.998 80.355 133.228 80.26 132.218 80.26C131.208 80.26 130.438 80.355 129.908 80.545C129.378 80.725 129.113 80.995 129.113 81.355ZM152.205 81.01V78.865H153.825V85.69H152.205V82.315H149.58V81.01H152.205ZM142.695 84.49C143.725 84.16 144.52 83.625 145.08 82.885C145.64 82.135 145.92 81.295 145.92 80.365V79.285H147.525V80.365C147.525 81.215 147.795 81.995 148.335 82.705C148.885 83.415 149.65 83.925 150.63 84.235L149.805 85.48C149.095 85.24 148.48 84.895 147.96 84.445C147.45 83.985 147.045 83.44 146.745 82.81C146.455 83.51 146.035 84.115 145.485 84.625C144.945 85.125 144.295 85.5 143.535 85.75L142.695 84.49ZM145.11 86.29H153.825V89.725H146.73V90.775H154.26V92.035H145.125V88.54H152.235V87.55H145.11V86.29ZM166.86 78.865V92.2H165.24V78.865H166.86ZM156 88.45C156.68 88.14 157.27 87.705 157.77 87.145C158.27 86.575 158.65 85.94 158.91 85.24C159.18 84.53 159.315 83.81 159.315 83.08V82.375H156.42V81.1H159.3V79.135H160.935V81.1H163.785V82.375H160.92V83.08C160.92 83.77 161.055 84.455 161.325 85.135C161.595 85.805 161.985 86.415 162.495 86.965C163.005 87.505 163.6 87.925 164.28 88.225L163.41 89.47C162.67 89.15 162.02 88.675 161.46 88.045C160.9 87.405 160.465 86.67 160.155 85.84C159.845 86.72 159.41 87.5 158.85 88.18C158.29 88.85 157.63 89.355 156.87 89.695L156 88.45ZM180.301 78.88V87.1H178.756V83.695H177.481V86.935H175.966V79.06H177.481V82.39H178.756V78.88H180.301ZM168.901 80.26H171.436V78.94H173.011V80.26H175.516V81.52H168.901V80.26ZM169.381 84.34C169.381 83.65 169.646 83.095 170.176 82.675C170.706 82.245 171.391 82.03 172.231 82.03C173.071 82.03 173.756 82.245 174.286 82.675C174.816 83.095 175.081 83.65 175.081 84.34C175.081 85.03 174.816 85.59 174.286 86.02C173.756 86.44 173.071 86.65 172.231 86.65C171.391 86.65 170.706 86.44 170.176 86.02C169.646 85.59 169.381 85.03 169.381 84.34ZM169.771 90.85C170.581 90.59 171.206 90.185 171.646 89.635C172.096 89.075 172.321 88.485 172.321 87.865V87.505H173.881V87.865C173.881 88.405 174.016 88.925 174.286 89.425C174.566 89.915 174.971 90.32 175.501 90.64C176.041 90.3 176.456 89.875 176.746 89.365C177.036 88.855 177.181 88.355 177.181 87.865V87.505H178.771V87.865C178.771 88.525 178.991 89.13 179.431 89.68C179.881 90.22 180.516 90.61 181.336 90.85L180.571 92.035C179.941 91.835 179.406 91.54 178.966 91.15C178.526 90.77 178.186 90.32 177.946 89.8C177.726 90.33 177.411 90.8 177.001 91.21C176.601 91.63 176.111 91.95 175.531 92.17C174.941 91.95 174.441 91.64 174.031 91.24C173.631 90.85 173.321 90.39 173.101 89.86C172.851 90.36 172.506 90.795 172.066 91.165C171.636 91.545 171.121 91.835 170.521 92.035L169.771 90.85ZM170.806 84.34C170.806 84.69 170.936 84.97 171.196 85.18C171.466 85.38 171.811 85.48 172.231 85.48C172.651 85.48 172.991 85.38 173.251 85.18C173.521 84.97 173.656 84.69 173.656 84.34C173.656 83.99 173.521 83.715 173.251 83.515C172.991 83.305 172.651 83.2 172.231 83.2C171.811 83.2 171.466 83.305 171.196 83.515C170.936 83.715 170.806 83.99 170.806 84.34ZM185.686 79.825C186.276 79.825 186.811 79.985 187.291 80.305C187.781 80.625 188.176 81.085 188.476 81.685C188.786 82.285 188.976 82.985 189.046 83.785H191.566V78.85H193.171V92.23H191.566V85.075H189.061C189.011 85.925 188.831 86.67 188.521 87.31C188.221 87.94 187.826 88.425 187.336 88.765C186.846 89.105 186.296 89.275 185.686 89.275C185.036 89.275 184.451 89.08 183.931 88.69C183.421 88.3 183.021 87.75 182.731 87.04C182.441 86.32 182.296 85.485 182.296 84.535C182.296 83.595 182.441 82.77 182.731 82.06C183.021 81.34 183.421 80.79 183.931 80.41C184.451 80.02 185.036 79.825 185.686 79.825ZM183.826 84.535C183.826 85.555 183.996 86.355 184.336 86.935C184.676 87.515 185.126 87.805 185.686 87.805C186.256 87.805 186.706 87.515 187.036 86.935C187.376 86.355 187.546 85.555 187.546 84.535C187.546 83.525 187.376 82.735 187.036 82.165C186.706 81.585 186.256 81.295 185.686 81.295C185.126 81.295 184.676 81.585 184.336 82.165C183.996 82.745 183.826 83.535 183.826 84.535ZM197.987 89.26V85.84C197.447 85.53 197.032 85.145 196.742 84.685C196.452 84.215 196.307 83.69 196.307 83.11C196.307 82.41 196.517 81.795 196.937 81.265C197.357 80.725 197.937 80.31 198.677 80.02C199.427 79.73 200.277 79.585 201.227 79.585C202.177 79.585 203.022 79.73 203.762 80.02C204.512 80.31 205.097 80.725 205.517 81.265C205.937 81.795 206.147 82.41 206.147 83.11C206.147 83.68 206.002 84.2 205.712 84.67C205.422 85.14 205.012 85.53 204.482 85.84V89.26H207.272V90.565H195.197V89.26H197.987ZM197.882 83.11C197.882 83.8 198.187 84.35 198.797 84.76C199.417 85.16 200.227 85.36 201.227 85.36C202.227 85.36 203.032 85.16 203.642 84.76C204.262 84.35 204.572 83.8 204.572 83.11C204.572 82.42 204.262 81.875 203.642 81.475C203.032 81.065 202.227 80.86 201.227 80.86C200.227 80.86 199.417 81.065 198.797 81.475C198.187 81.875 197.882 82.42 197.882 83.11ZM202.862 89.26V86.44C202.332 86.55 201.787 86.605 201.227 86.605C200.667 86.605 200.122 86.55 199.592 86.44V89.26H202.862ZM209.522 89.5C209.812 89.5 210.037 89.585 210.197 89.755C210.357 89.925 210.437 90.145 210.437 90.415C210.437 90.685 210.357 90.905 210.197 91.075C210.037 91.255 209.812 91.345 209.522 91.345C209.232 91.345 209.002 91.255 208.832 91.075C208.672 90.905 208.592 90.685 208.592 90.415C208.592 90.155 208.672 89.94 208.832 89.77C209.002 89.59 209.232 89.5 209.522 89.5Z" fill="#8C8B99"/>
</svg>
