<svg width="320" height="119" viewBox="0 0 320 119" fill="none" xmlns="http://www.w3.org/2000/svg">
<rect width="320" height="119" rx="16" fill="#DEF4F6"/>
<mask id="mask0_2_694" style="mask-type:alpha" maskUnits="userSpaceOnUse" x="24" y="27" width="64" height="65">
<rect x="24" y="27.5" width="64" height="64" fill="#D9D9D9"/>
</mask>
<g mask="url(#mask0_2_694)">
<path d="M55.8 86.1667C53.9334 86.1667 52.1222 85.9667 50.3667 85.5667C48.6111 85.1667 47.0222 84.6556 45.6 84.0333C43.5556 83.1445 41.8889 82.0667 40.6 80.8C39.3111 79.5333 38.6667 78.1222 38.6667 76.5667V61.1667C38.6667 59.7889 39.1889 58.5222 40.2334 57.3667C41.2778 56.2111 42.6222 55.1889 44.2667 54.3C45.9556 53.4111 47.8111 52.7222 49.8334 52.2333C51.8556 51.7445 53.9111 51.5 56 51.5C58.0889 51.5 60.1445 51.7445 62.1667 52.2333C64.1889 52.7222 66.0445 53.4111 67.7334 54.3C69.4222 55.1889 70.7778 56.2111 71.8 57.3667C72.8222 58.5222 73.3334 59.7889 73.3334 61.1667V76.5667C73.3334 77.3222 73.1667 78.0556 72.8334 78.7667C72.5 79.4778 72.0222 80.1445 71.4 80.7667C70.7778 81.3889 70.0556 81.9778 69.2334 82.5333C68.4111 83.0889 67.4889 83.5889 66.4667 84.0333C66.5111 83.8111 66.5778 83.1889 66.6667 82.1667C66.6667 79.5889 65.7556 77.3889 63.9334 75.5667C62.1111 73.7444 59.9111 72.8333 57.3334 72.8333C55.4222 72.8333 53.7334 73.3445 52.2667 74.3667C50.8 75.3889 49.6889 76.7 48.9334 78.3C50.3556 78.6556 51.6556 78.9 52.8334 79.0333C54.0111 79.1667 55.0445 79.2333 55.9334 79.2333C56.6889 79.2333 57.3 79.2111 57.7667 79.1667C58.2334 79.1222 58.5334 79.1 58.6667 79.1V86.0333C58.1778 86.0778 57.7 86.1111 57.2334 86.1333C56.7667 86.1556 56.2889 86.1667 55.8 86.1667ZM64 71.5C65.4667 71.5 66.7222 70.9778 67.7667 69.9333C68.8111 68.8889 69.3334 67.6333 69.3334 66.1667C69.3334 64.7 68.8111 63.4445 67.7667 62.4C66.7222 61.3556 65.4667 60.8333 64 60.8333C62.5334 60.8333 61.2778 61.3556 60.2334 62.4C59.1889 63.4445 58.6667 64.7 58.6667 66.1667C58.6667 67.6333 59.1889 68.8889 60.2334 69.9333C61.2778 70.9778 62.5334 71.5 64 71.5ZM56 48.8333C58.2222 48.8333 60.1111 48.0667 61.6667 46.5333C63.2222 45 64 43.1 64 40.8333C64 38.6111 63.2222 36.7222 61.6667 35.1667C60.1111 33.6111 58.2222 32.8333 56 32.8333C53.7334 32.8333 51.8334 33.6111 50.3 35.1667C48.7667 36.7222 48 38.6111 48 40.8333C48 43.1 48.7667 45 50.3 46.5333C51.8334 48.0667 53.7334 48.8333 56 48.8333Z" fill="#59CAD4"/>
</g>
<path d="M102.358 38.909V36.07H98.006V28.148H100.097V30.528H106.727V28.148H108.818V36.07H104.466V38.909H110.331V40.626H96.544V38.909H102.358ZM106.727 34.387V32.194H100.097V34.387H106.727ZM117.199 29.1V27.332H119.324V29.1H124.526V30.783H111.997V29.1H117.199ZM111.402 39.147H117.199V37.362C115.919 37.26 114.916 36.954 114.19 36.444C113.465 35.9227 113.102 35.2483 113.102 34.421C113.102 33.503 113.561 32.7833 114.479 32.262C115.397 31.7293 116.65 31.463 118.236 31.463C119.834 31.463 121.092 31.7293 122.01 32.262C122.928 32.7833 123.387 33.503 123.387 34.421C123.387 35.2483 123.03 35.917 122.316 36.427C121.602 36.937 120.605 37.2487 119.324 37.362V39.147H125.189V40.847H111.402V39.147ZM115.244 34.421C115.244 34.863 115.499 35.1973 116.009 35.424C116.519 35.6507 117.262 35.764 118.236 35.764C119.211 35.764 119.953 35.6507 120.463 35.424C120.973 35.1973 121.228 34.863 121.228 34.421C121.228 33.979 120.973 33.6503 120.463 33.435C119.953 33.2083 119.211 33.095 118.236 33.095C117.262 33.095 116.519 33.2083 116.009 33.435C115.499 33.6503 115.244 33.979 115.244 34.421ZM134.863 28.658V30.392H131.803V31.361C131.803 32.1543 131.944 32.9533 132.228 33.758C132.511 34.5627 132.93 35.2993 133.486 35.968C134.041 36.6367 134.715 37.1523 135.509 37.515L134.353 39.181C133.525 38.7957 132.806 38.2403 132.194 37.515C131.593 36.7897 131.123 35.951 130.783 34.999C130.431 36.0417 129.944 36.9597 129.321 37.753C128.697 38.5463 127.961 39.147 127.111 39.555L125.921 37.889C126.714 37.515 127.394 36.9767 127.961 36.274C128.527 35.5713 128.958 34.7893 129.253 33.928C129.547 33.0667 129.695 32.211 129.695 31.361V30.392H126.499V28.658H134.863ZM136.036 27.196H138.144V33.044H140.388V34.778H138.144V42.428H136.036V27.196Z" fill="#1E1D2B"/>
<path d="M107.535 55.865V69.2H105.915V55.865H107.535ZM98.115 64.715V58.475H96.81V57.185H104.34V58.475H103.035V64.535C103.685 64.485 104.315 64.425 104.925 64.355L105.015 65.51C103.755 65.72 102.45 65.86 101.1 65.93C99.75 66 98.26 66.04 96.63 66.05L96.48 64.715H98.115ZM99.675 64.685C100.495 64.665 101.095 64.645 101.475 64.625V58.475H99.675V64.685ZM114.84 66.26V63.62H110.97V56.75H112.56V58.94H118.74V56.75H120.33V63.62H116.445V66.26H121.695V67.58H109.62V66.26H114.84ZM118.74 62.345V60.215H112.56V62.345H118.74ZM127.951 57.635V56.03H129.556V57.635H134.206V58.925H123.286V57.635H127.951ZM122.731 66.44H127.951V64.76C126.801 64.68 125.901 64.42 125.251 63.98C124.611 63.53 124.291 62.94 124.291 62.21C124.291 61.4 124.686 60.77 125.476 60.32C126.276 59.87 127.366 59.645 128.746 59.645C130.116 59.645 131.196 59.875 131.986 60.335C132.786 60.785 133.186 61.41 133.186 62.21C133.186 62.94 132.866 63.53 132.226 63.98C131.586 64.42 130.696 64.68 129.556 64.76V66.44H134.806V67.745H122.731V66.44ZM125.926 62.21C125.926 62.64 126.166 62.97 126.646 63.2C127.136 63.42 127.836 63.53 128.746 63.53C129.646 63.53 130.336 63.42 130.816 63.2C131.306 62.97 131.551 62.64 131.551 62.21C131.551 61.78 131.306 61.455 130.816 61.235C130.336 61.005 129.646 60.89 128.746 60.89C127.846 60.89 127.151 61.005 126.661 61.235C126.171 61.455 125.926 61.78 125.926 62.21ZM143.341 57.17V58.52H140.566V59.675C140.566 60.365 140.701 61.07 140.971 61.79C141.241 62.5 141.626 63.145 142.126 63.725C142.636 64.305 143.226 64.75 143.896 65.06L142.996 66.335C142.266 65.995 141.626 65.49 141.076 64.82C140.526 64.15 140.096 63.385 139.786 62.525C139.476 63.465 139.036 64.3 138.466 65.03C137.906 65.76 137.256 66.305 136.516 66.665L135.586 65.405C136.256 65.075 136.846 64.605 137.356 63.995C137.876 63.375 138.276 62.685 138.556 61.925C138.836 61.165 138.976 60.415 138.976 59.675V58.52H136.081V57.17H143.341ZM144.586 55.865H146.206V61.085H148.246V62.42H146.206V69.2H144.586V55.865ZM160.351 55.865V69.2H158.806V55.865H160.351ZM149.086 61.625C149.086 60.655 149.201 59.815 149.431 59.105C149.671 58.385 150.006 57.835 150.436 57.455C150.866 57.065 151.366 56.87 151.936 56.87C152.736 56.87 153.391 57.23 153.901 57.95C154.411 58.66 154.706 59.64 154.786 60.89H156.121V56.12H157.636V68.57H156.121V62.195H154.801C154.731 63.495 154.441 64.52 153.931 65.27C153.421 66.02 152.756 66.395 151.936 66.395C151.366 66.395 150.866 66.205 150.436 65.825C150.006 65.435 149.671 64.88 149.431 64.16C149.201 63.44 149.086 62.595 149.086 61.625ZM150.556 61.625C150.556 62.665 150.676 63.47 150.916 64.04C151.156 64.6 151.496 64.88 151.936 64.88C152.386 64.88 152.731 64.6 152.971 64.04C153.221 63.48 153.346 62.675 153.346 61.625C153.346 60.585 153.221 59.79 152.971 59.24C152.731 58.68 152.386 58.4 151.936 58.4C151.496 58.4 151.156 58.68 150.916 59.24C150.676 59.79 150.556 60.585 150.556 61.625ZM173.477 55.865V69.2H171.932V55.865H173.477ZM161.957 65.24C163.307 64.44 164.322 63.51 165.002 62.45C165.682 61.39 166.082 60.17 166.202 58.79H162.617V57.485H167.822C167.822 58.805 167.647 60.02 167.297 61.13H169.142V56.18H170.657V68.555H169.142V62.405H166.772C165.982 63.995 164.687 65.325 162.887 66.395L161.957 65.24ZM188.079 59.195V55.865H189.699V63.785H188.079V60.515H185.784V59.195H188.079ZM178.599 62.465C179.619 62.105 180.414 61.53 180.984 60.74C181.554 59.94 181.839 59.075 181.839 58.145V58.04H179.064V56.75H186.204V58.04H183.474V58.145C183.474 58.995 183.744 59.79 184.284 60.53C184.834 61.26 185.599 61.79 186.579 62.12L185.784 63.395C185.064 63.145 184.439 62.78 183.909 62.3C183.389 61.82 182.984 61.255 182.694 60.605C182.394 61.345 181.964 61.99 181.404 62.54C180.854 63.08 180.194 63.485 179.424 63.755L178.599 62.465ZM180.714 66.68C180.714 65.89 181.114 65.27 181.914 64.82C182.724 64.37 183.834 64.145 185.244 64.145C186.644 64.145 187.744 64.37 188.544 64.82C189.344 65.27 189.744 65.89 189.744 66.68C189.744 67.48 189.344 68.1 188.544 68.54C187.744 68.98 186.644 69.2 185.244 69.2C183.834 69.2 182.724 68.98 181.914 68.54C181.114 68.1 180.714 67.48 180.714 66.68ZM182.334 66.68C182.334 67.1 182.584 67.42 183.084 67.64C183.594 67.86 184.314 67.97 185.244 67.97C186.174 67.97 186.889 67.86 187.389 67.64C187.889 67.42 188.139 67.1 188.139 66.68C188.139 66.26 187.889 65.94 187.389 65.72C186.889 65.49 186.174 65.375 185.244 65.375C184.304 65.375 183.584 65.49 183.084 65.72C182.584 65.94 182.334 66.26 182.334 66.68ZM196.959 66.26V63.62H193.089V56.75H194.679V58.94H200.859V56.75H202.449V63.62H198.564V66.26H203.814V67.58H191.739V66.26H196.959ZM200.859 62.345V60.215H194.679V62.345H200.859ZM216.925 61.955V63.125H204.85V61.955H216.925ZM206.245 63.965H215.455V67.01H207.865V67.94H215.845V69.08H206.275V65.945H213.88V65.09H206.245V63.965ZM206.365 56.165H215.425V59.165H207.97V60.035H215.665V61.175H206.38V58.115H213.835V57.29H206.365V56.165ZM231.857 55.865V58.955H233.702V60.305H231.857V63.65H230.252V55.865H231.857ZM221.897 56.615H223.487V58.46H226.607V56.615H228.197V62.93H221.897V56.615ZM223.352 64.295H231.947V65.585H224.957V67.745H232.202V69.035H223.352V64.295ZM226.607 61.64V59.72H223.487V61.64H226.607ZM240.558 56.6C241.488 56.6 242.323 56.76 243.063 57.08C243.813 57.39 244.403 57.835 244.833 58.415C245.263 58.985 245.478 59.64 245.478 60.38C245.478 61.12 245.263 61.775 244.833 62.345C244.403 62.915 243.813 63.36 243.063 63.68C242.323 63.99 241.488 64.145 240.558 64.145C239.628 64.145 238.788 63.99 238.038 63.68C237.298 63.36 236.713 62.915 236.283 62.345C235.853 61.775 235.638 61.12 235.638 60.38C235.638 59.64 235.853 58.985 236.283 58.415C236.713 57.835 237.298 57.39 238.038 57.08C238.788 56.76 239.628 56.6 240.558 56.6ZM234.528 66.185H246.603V67.505H234.528V66.185ZM237.198 60.38C237.198 60.87 237.343 61.3 237.633 61.67C237.923 62.04 238.323 62.325 238.833 62.525C239.343 62.725 239.918 62.825 240.558 62.825C241.208 62.825 241.783 62.725 242.283 62.525C242.793 62.325 243.188 62.04 243.468 61.67C243.758 61.3 243.903 60.87 243.903 60.38C243.903 59.88 243.758 59.445 243.468 59.075C243.188 58.705 242.793 58.42 242.283 58.22C241.783 58.01 241.208 57.905 240.558 57.905C239.918 57.905 239.343 58.01 238.833 58.22C238.323 58.42 237.923 58.705 237.633 59.075C237.343 59.445 237.198 59.88 237.198 60.38ZM258.708 55.85V69.23H257.103V63.725H254.658V62.435H257.103V60.095H254.718V58.775H257.103V55.85H258.708ZM248.073 57.02H253.983V62.015H249.708V64.865C250.658 64.855 251.528 64.825 252.318 64.775C253.118 64.725 253.938 64.635 254.778 64.505L254.913 65.825C253.983 65.975 253.083 66.075 252.213 66.125C251.343 66.175 250.318 66.2 249.138 66.2H248.103V60.725H252.378V58.31H248.073V57.02ZM107.505 78.85V92.23H105.885V78.85H107.505ZM96.93 84.535C96.93 83.595 97.075 82.77 97.365 82.06C97.665 81.34 98.075 80.79 98.595 80.41C99.115 80.02 99.71 79.825 100.38 79.825C101.05 79.825 101.645 80.02 102.165 80.41C102.685 80.79 103.09 81.34 103.38 82.06C103.68 82.77 103.83 83.595 103.83 84.535C103.83 85.485 103.68 86.32 103.38 87.04C103.09 87.75 102.685 88.3 102.165 88.69C101.645 89.08 101.05 89.275 100.38 89.275C99.71 89.275 99.115 89.08 98.595 88.69C98.075 88.3 97.665 87.75 97.365 87.04C97.075 86.32 96.93 85.485 96.93 84.535ZM98.49 84.535C98.49 85.555 98.66 86.355 99 86.935C99.35 87.515 99.81 87.805 100.38 87.805C100.95 87.805 101.41 87.515 101.76 86.935C102.11 86.355 102.285 85.555 102.285 84.535C102.285 83.525 102.11 82.735 101.76 82.165C101.41 81.585 100.95 81.295 100.38 81.295C99.81 81.295 99.35 81.585 99 82.165C98.66 82.735 98.49 83.525 98.49 84.535ZM116.182 79.585C116.772 79.585 117.297 79.715 117.757 79.975C118.217 80.235 118.577 80.6 118.837 81.07C119.097 81.53 119.227 82.06 119.227 82.66C119.227 83.25 119.097 83.78 118.837 84.25C118.577 84.71 118.217 85.07 117.757 85.33C117.297 85.58 116.772 85.705 116.182 85.705C115.602 85.705 115.082 85.58 114.622 85.33C114.162 85.07 113.802 84.71 113.542 84.25C113.282 83.78 113.152 83.25 113.152 82.66C113.152 82.06 113.282 81.53 113.542 81.07C113.802 80.6 114.162 80.235 114.622 79.975C115.082 79.715 115.602 79.585 116.182 79.585ZM114.607 82.66C114.607 83.19 114.752 83.615 115.042 83.935C115.342 84.245 115.722 84.4 116.182 84.4C116.642 84.4 117.022 84.245 117.322 83.935C117.622 83.615 117.772 83.19 117.772 82.66C117.772 82.13 117.622 81.705 117.322 81.385C117.032 81.065 116.652 80.905 116.182 80.905C115.722 80.905 115.342 81.065 115.042 81.385C114.752 81.705 114.607 82.13 114.607 82.66ZM115.447 86.695H117.052V88.06H122.797V86.695H124.387V92.035H115.447V86.695ZM122.797 90.745V89.32H117.052V90.745H122.797ZM120.007 79.12H121.522V81.76H122.842V78.88H124.387V86.125H122.842V83.08H121.522V86.035H120.007V79.12ZM132.218 79.075C133.718 79.075 134.888 79.275 135.728 79.675C136.568 80.065 136.988 80.625 136.988 81.355C136.988 82.095 136.568 82.665 135.728 83.065C134.898 83.455 133.728 83.65 132.218 83.65C130.708 83.65 129.533 83.455 128.693 83.065C127.863 82.665 127.448 82.095 127.448 81.355C127.448 80.625 127.863 80.065 128.693 79.675C129.533 79.275 130.708 79.075 132.218 79.075ZM126.188 84.4H138.233V85.675H126.188V84.4ZM127.598 86.59H136.733V89.83H129.218V90.865H137.123V92.095H127.628V88.705H135.158V87.805H127.598V86.59ZM129.113 81.355C129.113 82.095 130.148 82.465 132.218 82.465C134.288 82.465 135.323 82.095 135.323 81.355C135.323 80.995 135.058 80.725 134.528 80.545C133.998 80.355 133.228 80.26 132.218 80.26C131.208 80.26 130.438 80.355 129.908 80.545C129.378 80.725 129.113 80.995 129.113 81.355ZM152.205 81.01V78.865H153.825V85.69H152.205V82.315H149.58V81.01H152.205ZM142.695 84.49C143.725 84.16 144.52 83.625 145.08 82.885C145.64 82.135 145.92 81.295 145.92 80.365V79.285H147.525V80.365C147.525 81.215 147.795 81.995 148.335 82.705C148.885 83.415 149.65 83.925 150.63 84.235L149.805 85.48C149.095 85.24 148.48 84.895 147.96 84.445C147.45 83.985 147.045 83.44 146.745 82.81C146.455 83.51 146.035 84.115 145.485 84.625C144.945 85.125 144.295 85.5 143.535 85.75L142.695 84.49ZM145.11 86.29H153.825V89.725H146.73V90.775H154.26V92.035H145.125V88.54H152.235V87.55H145.11V86.29ZM166.86 78.865V92.2H165.24V78.865H166.86ZM156 88.45C156.68 88.14 157.27 87.705 157.77 87.145C158.27 86.575 158.65 85.94 158.91 85.24C159.18 84.53 159.315 83.81 159.315 83.08V82.375H156.42V81.1H159.3V79.135H160.935V81.1H163.785V82.375H160.92V83.08C160.92 83.77 161.055 84.455 161.325 85.135C161.595 85.805 161.985 86.415 162.495 86.965C163.005 87.505 163.6 87.925 164.28 88.225L163.41 89.47C162.67 89.15 162.02 88.675 161.46 88.045C160.9 87.405 160.465 86.67 160.155 85.84C159.845 86.72 159.41 87.5 158.85 88.18C158.29 88.85 157.63 89.355 156.87 89.695L156 88.45ZM180.301 78.88V87.1H178.756V83.695H177.481V86.935H175.966V79.06H177.481V82.39H178.756V78.88H180.301ZM168.901 80.26H171.436V78.94H173.011V80.26H175.516V81.52H168.901V80.26ZM169.381 84.34C169.381 83.65 169.646 83.095 170.176 82.675C170.706 82.245 171.391 82.03 172.231 82.03C173.071 82.03 173.756 82.245 174.286 82.675C174.816 83.095 175.081 83.65 175.081 84.34C175.081 85.03 174.816 85.59 174.286 86.02C173.756 86.44 173.071 86.65 172.231 86.65C171.391 86.65 170.706 86.44 170.176 86.02C169.646 85.59 169.381 85.03 169.381 84.34ZM169.771 90.85C170.581 90.59 171.206 90.185 171.646 89.635C172.096 89.075 172.321 88.485 172.321 87.865V87.505H173.881V87.865C173.881 88.405 174.016 88.925 174.286 89.425C174.566 89.915 174.971 90.32 175.501 90.64C176.041 90.3 176.456 89.875 176.746 89.365C177.036 88.855 177.181 88.355 177.181 87.865V87.505H178.771V87.865C178.771 88.525 178.991 89.13 179.431 89.68C179.881 90.22 180.516 90.61 181.336 90.85L180.571 92.035C179.941 91.835 179.406 91.54 178.966 91.15C178.526 90.77 178.186 90.32 177.946 89.8C177.726 90.33 177.411 90.8 177.001 91.21C176.601 91.63 176.111 91.95 175.531 92.17C174.941 91.95 174.441 91.64 174.031 91.24C173.631 90.85 173.321 90.39 173.101 89.86C172.851 90.36 172.506 90.795 172.066 91.165C171.636 91.545 171.121 91.835 170.521 92.035L169.771 90.85ZM170.806 84.34C170.806 84.69 170.936 84.97 171.196 85.18C171.466 85.38 171.811 85.48 172.231 85.48C172.651 85.48 172.991 85.38 173.251 85.18C173.521 84.97 173.656 84.69 173.656 84.34C173.656 83.99 173.521 83.715 173.251 83.515C172.991 83.305 172.651 83.2 172.231 83.2C171.811 83.2 171.466 83.305 171.196 83.515C170.936 83.715 170.806 83.99 170.806 84.34ZM185.686 79.825C186.276 79.825 186.811 79.985 187.291 80.305C187.781 80.625 188.176 81.085 188.476 81.685C188.786 82.285 188.976 82.985 189.046 83.785H191.566V78.85H193.171V92.23H191.566V85.075H189.061C189.011 85.925 188.831 86.67 188.521 87.31C188.221 87.94 187.826 88.425 187.336 88.765C186.846 89.105 186.296 89.275 185.686 89.275C185.036 89.275 184.451 89.08 183.931 88.69C183.421 88.3 183.021 87.75 182.731 87.04C182.441 86.32 182.296 85.485 182.296 84.535C182.296 83.595 182.441 82.77 182.731 82.06C183.021 81.34 183.421 80.79 183.931 80.41C184.451 80.02 185.036 79.825 185.686 79.825ZM183.826 84.535C183.826 85.555 183.996 86.355 184.336 86.935C184.676 87.515 185.126 87.805 185.686 87.805C186.256 87.805 186.706 87.515 187.036 86.935C187.376 86.355 187.546 85.555 187.546 84.535C187.546 83.525 187.376 82.735 187.036 82.165C186.706 81.585 186.256 81.295 185.686 81.295C185.126 81.295 184.676 81.585 184.336 82.165C183.996 82.745 183.826 83.535 183.826 84.535ZM197.987 89.26V85.84C197.447 85.53 197.032 85.145 196.742 84.685C196.452 84.215 196.307 83.69 196.307 83.11C196.307 82.41 196.517 81.795 196.937 81.265C197.357 80.725 197.937 80.31 198.677 80.02C199.427 79.73 200.277 79.585 201.227 79.585C202.177 79.585 203.022 79.73 203.762 80.02C204.512 80.31 205.097 80.725 205.517 81.265C205.937 81.795 206.147 82.41 206.147 83.11C206.147 83.68 206.002 84.2 205.712 84.67C205.422 85.14 205.012 85.53 204.482 85.84V89.26H207.272V90.565H195.197V89.26H197.987ZM197.882 83.11C197.882 83.8 198.187 84.35 198.797 84.76C199.417 85.16 200.227 85.36 201.227 85.36C202.227 85.36 203.032 85.16 203.642 84.76C204.262 84.35 204.572 83.8 204.572 83.11C204.572 82.42 204.262 81.875 203.642 81.475C203.032 81.065 202.227 80.86 201.227 80.86C200.227 80.86 199.417 81.065 198.797 81.475C198.187 81.875 197.882 82.42 197.882 83.11ZM202.862 89.26V86.44C202.332 86.55 201.787 86.605 201.227 86.605C200.667 86.605 200.122 86.55 199.592 86.44V89.26H202.862ZM209.522 89.5C209.812 89.5 210.037 89.585 210.197 89.755C210.357 89.925 210.437 90.145 210.437 90.415C210.437 90.685 210.357 90.905 210.197 91.075C210.037 91.255 209.812 91.345 209.522 91.345C209.232 91.345 209.002 91.255 208.832 91.075C208.672 90.905 208.592 90.685 208.592 90.415C208.592 90.155 208.672 89.94 208.832 89.77C209.002 89.59 209.232 89.5 209.522 89.5Z" fill="#8C8B99"/>
</svg>
