<svg width="24" height="24" viewBox="0 0 24 24" fill="none" xmlns="http://www.w3.org/2000/svg">
<mask id="mask0_28_60" style="mask-type:alpha" maskUnits="userSpaceOnUse" x="0" y="0" width="24" height="24">
<rect width="24" height="24" fill="#D9D9D9"/>
</mask>
<g mask="url(#mask0_28_60)">
<path d="M12.5961 11.6423C13.0218 11.1795 13.3365 10.6481 13.5404 10.0481C13.7442 9.44808 13.8461 8.82949 13.8461 8.19233C13.8461 7.55516 13.7442 6.93658 13.5404 6.33658C13.3365 5.73658 13.0218 5.20517 12.5961 4.74235C13.4743 4.84364 14.2035 5.2228 14.7836 5.87985C15.3638 6.53689 15.6538 7.30771 15.6538 8.19233C15.6538 9.07693 15.3638 9.84775 14.7836 10.5048C14.2035 11.1619 13.4743 11.541 12.5961 11.6423ZM17.4577 19.3077C17.582 19.2038 17.6779 19.0772 17.7452 18.9279C17.8125 18.7785 17.8461 18.6051 17.8461 18.4077V16.9615C17.8461 16.4164 17.7352 15.8977 17.5134 15.4056C17.2917 14.9134 16.9769 14.491 16.5692 14.1385C17.3359 14.3936 18.0417 14.7378 18.6865 15.1712C19.3314 15.6045 19.6538 16.2013 19.6538 16.9615V18.4038C19.6538 18.6599 19.5672 18.8746 19.394 19.0478C19.2207 19.221 19.0061 19.3077 18.75 19.3077H17.4577ZM18.4038 10.75C18.1913 10.75 18.0132 10.6781 17.8694 10.5343C17.7257 10.3905 17.6538 10.2123 17.6538 9.99968C17.6538 9.78708 17.7257 9.60899 17.8694 9.4654C18.0132 9.32182 18.1913 9.25003 18.4038 9.25003H22.4038C22.6163 9.25003 22.7944 9.32193 22.9382 9.46573C23.0819 9.60955 23.1538 9.78774 23.1538 10.0003C23.1538 10.2129 23.0819 10.391 22.9382 10.5346C22.7944 10.6782 22.6163 10.75 22.4038 10.75H18.4038ZM8.34617 11.6923C7.38369 11.6923 6.55974 11.3496 5.87432 10.6642C5.18892 9.97876 4.84622 9.15481 4.84622 8.19233C4.84622 7.22983 5.18892 6.40588 5.87432 5.72048C6.55974 5.03506 7.38369 4.69235 8.34617 4.69235C9.30867 4.69235 10.1326 5.03506 10.818 5.72048C11.5034 6.40588 11.8461 7.22983 11.8461 8.19233C11.8461 9.15481 11.5034 9.97876 10.818 10.6642C10.1326 11.3496 9.30867 11.6923 8.34617 11.6923ZM1.75005 19.3077C1.49396 19.3077 1.2793 19.221 1.10605 19.0478C0.93283 18.8746 0.846222 18.6599 0.846222 18.4038V17.0846C0.846222 16.5949 0.97923 16.1414 1.24525 15.7241C1.51128 15.3068 1.86673 14.9859 2.3116 14.7616C3.30005 14.2769 4.29716 13.9135 5.30292 13.6712C6.30869 13.4289 7.32311 13.3077 8.34617 13.3077C9.36924 13.3077 10.3837 13.4289 11.3894 13.6712C12.3952 13.9135 13.3923 14.2769 14.3808 14.7616C14.8256 14.9859 15.1811 15.3068 15.4471 15.7241C15.7131 16.1414 15.8461 16.5949 15.8461 17.0846V18.4038C15.8461 18.6599 15.7595 18.8746 15.5863 19.0478C15.413 19.221 15.1984 19.3077 14.9423 19.3077H1.75005ZM8.34617 10.1923C8.89617 10.1923 9.36701 9.99649 9.75867 9.60483C10.1503 9.21316 10.3462 8.74233 10.3462 8.19233C10.3462 7.64233 10.1503 7.17149 9.75867 6.77983C9.36701 6.38816 8.89617 6.19233 8.34617 6.19233C7.79617 6.19233 7.32534 6.38816 6.93367 6.77983C6.542 7.17149 6.34617 7.64233 6.34617 8.19233C6.34617 8.74233 6.542 9.21316 6.93367 9.60483C7.32534 9.99649 7.79617 10.1923 8.34617 10.1923ZM2.34617 17.8077H14.3462V17.0846C14.3462 16.882 14.2875 16.6945 14.1702 16.5221C14.0529 16.3497 13.8936 16.209 13.6923 16.1C12.8308 15.6756 11.9523 15.3542 11.0569 15.1356C10.1615 14.917 9.25789 14.8077 8.34617 14.8077C7.43447 14.8077 6.53091 14.917 5.63547 15.1356C4.74006 15.3542 3.86157 15.6756 3.00002 16.1C2.79874 16.209 2.63945 16.3497 2.52215 16.5221C2.40483 16.6945 2.34617 16.882 2.34617 17.0846V17.8077Z" fill="#59CAD4"/>
</g>
</svg>
