<svg width="20" height="19" viewBox="0 0 20 19" fill="none" xmlns="http://www.w3.org/2000/svg">
<path d="M16.8241 12.9942L15.6895 11.8289C16.3626 11.6455 16.9059 11.2849 17.3193 10.7471C17.7328 10.2093 17.9395 9.58891 17.9395 8.88598C17.9395 8.04916 17.6446 7.33428 17.0549 6.74133C16.4651 6.14838 15.7536 5.8519 14.9203 5.8519H11.8626C11.6501 5.8519 11.472 5.78 11.3282 5.6362C11.1845 5.49238 11.1126 5.31418 11.1126 5.1016C11.1126 4.889 11.1845 4.71091 11.3282 4.56733C11.472 4.42374 11.6501 4.35195 11.8626 4.35195H14.9203C16.1706 4.35195 17.2364 4.79444 18.1176 5.67943C18.9989 6.56443 19.4395 7.63474 19.4395 8.89038C19.4395 9.77628 19.2017 10.5856 18.726 11.3183C18.2504 12.0509 17.6164 12.6096 16.8241 12.9942ZM13.3626 9.48268L12.0203 8.1404H12.9203C13.1328 8.1404 13.3109 8.21264 13.4546 8.35713C13.5984 8.50161 13.6703 8.68064 13.6703 8.89423C13.6703 9.01986 13.6429 9.13347 13.5882 9.23505C13.5335 9.33663 13.4583 9.41918 13.3626 9.48268ZM18.6126 18.6173C18.4677 18.7622 18.2921 18.8346 18.0857 18.8346C17.8793 18.8346 17.7036 18.7622 17.5588 18.6173L0.212605 1.27112C0.0741381 1.13267 0.0033048 0.958642 0.000104797 0.749025C-0.00311187 0.539425 0.0677215 0.362184 0.212605 0.2173C0.357471 0.0724338 0.533105 0 0.739505 0C0.945905 0 1.12154 0.0724338 1.2664 0.2173L18.6126 17.5635C18.7511 17.702 18.8219 17.876 18.8251 18.0856C18.8283 18.2952 18.7575 18.4724 18.6126 18.6173ZM4.97798 13.4288C3.72235 13.4288 2.65203 12.9863 1.76703 12.1013C0.88203 11.2163 0.43953 10.146 0.43953 8.89038C0.43953 7.77884 0.797546 6.80352 1.51358 5.96442C2.22961 5.12532 3.12801 4.6186 4.20878 4.44425H4.43956L5.84723 5.8519H4.97798C4.13823 5.8519 3.42188 6.14838 2.82893 6.74133C2.23598 7.33428 1.9395 8.05062 1.9395 8.89038C1.9395 9.73013 2.23598 10.4465 2.82893 11.0394C3.42188 11.6324 4.13974 11.9289 4.98251 11.9289H8.01643C8.22893 11.9289 8.40706 12.0008 8.55081 12.1446C8.69454 12.2884 8.76641 12.4666 8.76641 12.6792C8.76641 12.8918 8.69454 13.0698 8.55081 13.2134C8.40706 13.357 8.22893 13.4288 8.01643 13.4288H4.97798ZM6.95873 9.64035C6.74625 9.64035 6.56813 9.56845 6.42438 9.42465C6.28063 9.28083 6.20876 9.10263 6.20876 8.89005C6.20876 8.67745 6.28063 8.49936 6.42438 8.35578C6.56813 8.21219 6.74625 8.1404 6.95873 8.1404H8.15108L9.62606 9.64035H6.95873Z" fill="#1E1D2B"/>
</svg>
