<svg width="24" height="24" viewBox="0 0 24 24" fill="none" xmlns="http://www.w3.org/2000/svg">
<mask id="mask0_28_63" style="mask-type:alpha" maskUnits="userSpaceOnUse" x="0" y="0" width="24" height="24">
<rect width="24" height="24" fill="#D9D9D9"/>
</mask>
<g mask="url(#mask0_28_63)">
<path d="M10 11.6923C9.03751 11.6923 8.21356 11.3496 7.52815 10.6642C6.84273 9.97876 6.50002 9.15481 6.50002 8.19233C6.50002 7.22983 6.84273 6.40588 7.52815 5.72048C8.21356 5.03506 9.03751 4.69235 10 4.69235C10.9625 4.69235 11.7864 5.03506 12.4718 5.72048C13.1573 6.40588 13.5 7.22983 13.5 8.19233C13.5 9.15481 13.1573 9.97876 12.4718 10.6642C11.7864 11.3496 10.9625 11.6923 10 11.6923ZM3.40747 19.3077C3.14739 19.3077 2.93113 19.221 2.7587 19.0478C2.58625 18.8746 2.50002 18.6599 2.50002 18.4038V17.0846C2.50002 16.5795 2.62887 16.1221 2.88657 15.7125C3.14426 15.3029 3.50386 14.9859 3.9654 14.7616C4.79618 14.3475 5.69361 14.0016 6.6577 13.7241C7.6218 13.4465 8.7359 13.3077 10 13.3077H10.2923C10.3731 13.3077 10.4602 13.318 10.5538 13.3385C10.4526 13.5744 10.3689 13.8148 10.3029 14.0596C10.2369 14.3045 10.1821 14.5538 10.1385 14.8077H10C8.84871 14.8077 7.82949 14.9401 6.94232 15.2048C6.05514 15.4695 5.29231 15.7679 4.65385 16.1C4.42693 16.2218 4.26122 16.3641 4.15672 16.5269C4.05224 16.6897 4 16.8756 4 17.0846V17.8077H10.3C10.3743 18.0615 10.4708 18.3192 10.5894 18.5807C10.708 18.8423 10.8384 19.0846 10.9807 19.3077H3.40747ZM10 10.1923C10.55 10.1923 11.0208 9.99649 11.4125 9.60483C11.8042 9.21316 12 8.74233 12 8.19233C12 7.64233 11.8042 7.17149 11.4125 6.77983C11.0208 6.38816 10.55 6.19233 10 6.19233C9.45 6.19233 8.97916 6.38816 8.5875 6.77983C8.19583 7.17149 8 7.64233 8 8.19233C8 8.74233 8.19583 9.21316 8.5875 9.60483C8.97916 9.99649 9.45 10.1923 10 10.1923ZM16.8085 17.5384C17.3323 17.5384 17.7804 17.3519 18.1529 16.9789C18.5253 16.6059 18.7115 16.1575 18.7115 15.6338C18.7115 15.11 18.525 14.6618 18.152 14.2894C17.779 13.917 17.3306 13.7308 16.8068 13.7308C16.283 13.7308 15.8349 13.9173 15.4625 14.2903C15.0901 14.6633 14.9038 15.1117 14.9038 15.6355C14.9038 16.1592 15.0903 16.6073 15.4633 16.9798C15.8363 17.3522 16.2847 17.5384 16.8085 17.5384ZM15.8827 18.7211C15.6442 18.6506 15.4199 18.5583 15.2096 18.4442C14.9994 18.3301 14.7994 18.1871 14.6096 18.0153L13.65 18.3499C13.5528 18.3833 13.4626 18.3807 13.3793 18.3423C13.2961 18.3038 13.2267 18.241 13.1712 18.1538L12.8019 17.5384C12.7481 17.4577 12.7305 17.3686 12.7491 17.2711C12.7677 17.1737 12.8173 17.0929 12.8981 17.0288L13.6654 16.4C13.5936 16.141 13.5577 15.8859 13.5577 15.6346C13.5577 15.3833 13.5936 15.1282 13.6654 14.8692L12.9077 14.2211C12.827 14.157 12.7773 14.0763 12.7587 13.9788C12.7401 13.8814 12.7577 13.7891 12.8116 13.7019L13.1808 13.0866C13.2363 13.0079 13.3057 12.9504 13.389 12.9141C13.4723 12.8778 13.5625 12.8763 13.6596 12.9096L14.6096 13.2443C14.793 13.0725 14.9914 12.9311 15.2048 12.8202C15.4183 12.7093 15.6442 12.6186 15.8827 12.5481L16.05 11.5539C16.0779 11.4568 16.1268 11.3771 16.1967 11.3148C16.2665 11.2524 16.3503 11.2212 16.4481 11.2212H17.1865C17.2873 11.2212 17.3738 11.2523 17.4458 11.3145C17.5178 11.3766 17.5641 11.4564 17.5846 11.5539L17.7423 12.5481C17.9807 12.6186 18.2067 12.7119 18.4201 12.8279C18.6336 12.9439 18.832 13.093 19.0153 13.275L19.95 12.9096C20.0474 12.866 20.1417 12.866 20.2329 12.9096C20.3241 12.9532 20.3977 13.0186 20.4538 13.1058L20.823 13.7519C20.8769 13.8327 20.8954 13.9202 20.8788 14.0144C20.8621 14.1086 20.8134 14.1878 20.7326 14.2519L19.9595 14.9C20.0313 15.1405 20.0672 15.391 20.0672 15.6515C20.0672 15.912 20.0313 16.1615 19.9595 16.4L20.7269 17.0288C20.814 17.0929 20.8637 17.1753 20.8759 17.2759C20.8881 17.3766 20.8672 17.4705 20.8134 17.5577L20.4442 18.173C20.3898 18.2517 20.3218 18.3091 20.2402 18.3455C20.1586 18.3818 20.0702 18.3833 19.975 18.3499L19.0153 18.0153C18.8256 18.1871 18.6256 18.3301 18.4153 18.4442C18.2051 18.5583 17.9807 18.6506 17.7423 18.7211L17.5846 19.7153C17.5641 19.8128 17.5178 19.8926 17.4458 19.9548C17.3738 20.0169 17.2873 20.048 17.1865 20.048H16.4481C16.3503 20.048 16.2665 20.0168 16.1967 19.9545C16.1268 19.8921 16.0779 19.8124 16.05 19.7153L15.8827 18.7211Z" fill="#59CAD4"/>
</g>
</svg>
