<svg width="32" height="32" viewBox="0 0 32 32" fill="none" xmlns="http://www.w3.org/2000/svg">
<circle cx="16" cy="16" r="8" stroke="white" stroke-width="2"/>
<mask id="mask0_2_3815" style="mask-type:alpha" maskUnits="userSpaceOnUse" x="0" y="0" width="32" height="32">
<rect width="32" height="32" fill="#D9D9D9"/>
</mask>
<g mask="url(#mask0_2_3815)">
<path d="M15.9998 18.3208C15.3552 18.3208 14.8076 18.0952 14.3561 17.6437C13.9046 17.1922 13.679 16.6446 13.679 16C13.679 15.3554 13.9046 14.8077 14.3561 14.3563C14.8076 13.9048 15.3552 13.6792 15.9998 13.6792C16.6444 13.6792 17.192 13.9048 17.6435 14.3563C18.095 14.8077 18.3206 15.3554 18.3206 16C18.3206 16.6446 18.095 17.1922 17.6435 17.6437C17.192 18.0952 16.6444 18.3208 15.9998 18.3208ZM15.9994 10.6542C15.7191 10.6542 15.4848 10.5595 15.2958 10.3703C15.1069 10.1811 15.0123 9.94686 15.0123 9.66669V5.66669C15.0123 5.3865 15.107 5.15223 15.2963 4.96303C15.4856 4.77382 15.7199 4.67919 16.0002 4.67919C16.2806 4.67919 16.5148 4.77382 16.7038 4.96302C16.8927 5.15223 16.9873 5.3865 16.9873 5.66669V9.66669C16.9873 9.94685 16.8926 10.1811 16.7033 10.3703C16.514 10.5595 16.2797 10.6542 15.9994 10.6542ZM15.9994 27.3208C15.7191 27.3208 15.4848 27.2262 15.2958 27.037C15.1069 26.8478 15.0123 26.6135 15.0123 26.3333V22.3333C15.0123 22.0531 15.107 21.8189 15.2963 21.6297C15.4856 21.4405 15.7199 21.3458 16.0002 21.3458C16.2806 21.3458 16.5148 21.4405 16.7038 21.6297C16.8927 21.8189 16.9873 22.0531 16.9873 22.3333V26.3333C16.9873 26.6135 16.8926 26.8477 16.7033 27.037C16.514 27.2262 16.2797 27.3208 15.9994 27.3208ZM22.3331 16.9875C22.0529 16.9875 21.8187 16.8928 21.6295 16.7035C21.4403 16.5142 21.3456 16.2799 21.3456 15.9996C21.3456 15.7192 21.4403 15.485 21.6295 15.296C21.8187 15.107 22.0529 15.0125 22.3331 15.0125H26.3331C26.6133 15.0125 26.8476 15.1072 27.0368 15.2965C27.226 15.4858 27.3206 15.7201 27.3206 16.0004C27.3206 16.2807 27.226 16.515 27.0368 16.7039C26.8476 16.8929 26.6133 16.9875 26.3331 16.9875H22.3331ZM5.6665 16.9875C5.38632 16.9875 5.15205 16.8928 4.96284 16.7035C4.77364 16.5142 4.679 16.2799 4.679 15.9996C4.679 15.7192 4.77364 15.485 4.96284 15.296C5.15204 15.107 5.38631 15.0125 5.6665 15.0125H9.6665C9.94667 15.0125 10.1809 15.1072 10.3701 15.2965C10.5593 15.4858 10.654 15.7201 10.654 16.0004C10.654 16.2807 10.5593 16.515 10.3701 16.7039C10.1809 16.8929 9.94667 16.9875 9.6665 16.9875H5.6665Z" fill="white" stroke="white" stroke-width="0.025"/>
</g>
</svg>
