<svg width="24" height="24" viewBox="0 0 24 24" fill="none" xmlns="http://www.w3.org/2000/svg">
<mask id="mask0_27_1769" style="mask-type:alpha" maskUnits="userSpaceOnUse" x="0" y="0" width="24" height="24">
<rect width="24" height="24" fill="#D9D9D9"/>
</mask>
<g mask="url(#mask0_27_1769)">
<path d="M13.8768 21.3134C13.6537 21.3673 13.4586 21.3224 13.2913 21.1788C13.1239 21.0352 13.0403 20.8384 13.0403 20.5885C13.0403 20.4128 13.1002 20.2532 13.2201 20.1096C13.34 19.966 13.4877 19.8705 13.6634 19.8231C14.1634 19.7167 14.6428 19.5699 15.1018 19.3827C15.5608 19.1955 15.9929 18.966 16.398 18.6942C16.557 18.593 16.732 18.5516 16.923 18.5702C17.114 18.5888 17.2736 18.6622 17.4018 18.7904C17.5775 18.966 17.656 19.1638 17.6374 19.3836C17.6188 19.6035 17.5114 19.7775 17.3153 19.9057C16.7922 20.2583 16.2454 20.5477 15.6749 20.774C15.1044 21.0003 14.505 21.1801 13.8768 21.3134ZM18.8461 17.3558C18.7179 17.2276 18.6445 17.0705 18.6259 16.8846C18.6073 16.6987 18.6486 16.5282 18.7499 16.3731C19.0179 15.9616 19.2464 15.5289 19.4355 15.075C19.6246 14.6212 19.7723 14.1423 19.8788 13.6385C19.9262 13.4628 20.0259 13.3125 20.1778 13.1875C20.3297 13.0625 20.4935 13 20.6691 13C20.9191 13 21.1143 13.0862 21.2547 13.2587C21.3951 13.4311 21.4364 13.6288 21.3787 13.8519C21.2582 14.4711 21.079 15.066 20.8412 15.6365C20.6034 16.2071 20.305 16.7532 19.946 17.275C19.8178 17.4609 19.6463 17.5647 19.4316 17.5865C19.2169 17.6083 19.0217 17.5314 18.8461 17.3558ZM20.6441 11C20.4685 11 20.3089 10.9375 20.1653 10.8125C20.0217 10.6875 19.9262 10.5372 19.8788 10.3616C19.7788 9.8513 19.6326 9.36828 19.4403 8.91252C19.248 8.45675 19.0211 8.02821 18.7595 7.62691C18.6582 7.4718 18.6153 7.30129 18.6307 7.11539C18.6461 6.92951 18.7179 6.77247 18.8461 6.64427C19.0217 6.46862 19.2185 6.39073 19.4364 6.41062C19.6544 6.43048 19.8274 6.53337 19.9556 6.71927C20.3274 7.26028 20.6268 7.80515 20.8537 8.35387C21.0806 8.9026 21.2608 9.50068 21.3941 10.1481C21.4415 10.3712 21.3909 10.5689 21.2422 10.7414C21.0935 10.9138 20.8941 11 20.6441 11ZM10.2192 21.3077C8.01276 20.8384 6.18968 19.7391 4.74993 18.0096C3.3102 16.2801 2.59033 14.2769 2.59033 12C2.59033 9.70643 3.30764 7.68977 4.74226 5.95004C6.17686 4.21029 7.99737 3.11927 10.2038 2.67697C10.4268 2.62953 10.622 2.67601 10.7893 2.81639C10.9566 2.95677 11.0403 3.14683 11.0403 3.38656C11.0403 3.5622 10.9803 3.72342 10.8605 3.87022C10.7406 4.017 10.5929 4.11411 10.4172 4.16154C8.58262 4.55642 7.06947 5.48527 5.87781 6.94809C4.68612 8.41091 4.09028 10.0949 4.09028 12C4.09028 13.8987 4.68612 15.5702 5.87781 17.0144C7.06947 18.4587 8.58262 19.3949 10.4172 19.8231C10.5929 19.8705 10.7406 19.9702 10.8605 20.1221C10.9803 20.274 11.0403 20.4378 11.0403 20.6135C11.0403 20.8532 10.9592 21.0407 10.797 21.1759C10.6348 21.3112 10.4422 21.3551 10.2192 21.3077ZM16.4634 5.34042C16.0224 5.0558 15.5714 4.81317 15.1105 4.61252C14.6496 4.41187 14.1787 4.26154 13.698 4.16154C13.5223 4.11411 13.372 4.017 13.247 3.87022C13.122 3.72342 13.0595 3.5622 13.0595 3.38656C13.0595 3.14683 13.1432 2.95677 13.3105 2.81639C13.4778 2.67601 13.673 2.62953 13.896 2.67697C14.505 2.8039 15.0957 2.98371 15.6682 3.21639C16.2406 3.44909 16.7948 3.74172 17.3307 4.09429C17.5268 4.22249 17.6358 4.39812 17.6576 4.62119C17.6794 4.84426 17.6057 5.04362 17.4364 5.21927C17.3146 5.34747 17.1634 5.42502 16.9826 5.45194C16.8018 5.47887 16.6288 5.4417 16.4634 5.34042ZM12.0557 16.1692C11.9352 16.1692 11.8188 16.15 11.7066 16.1115C11.5945 16.073 11.4999 16.0186 11.423 15.9481C10.4256 15.0275 9.6791 14.1689 9.18358 13.3721C8.68807 12.5753 8.44031 11.8372 8.44031 11.1577C8.44031 10.1 8.78422 9.21799 9.47203 8.51159C10.1598 7.80517 11.0211 7.45197 12.0557 7.45197C13.0903 7.45197 13.9515 7.80517 14.6393 8.51159C15.3271 9.21799 15.671 10.1 15.671 11.1577C15.671 11.8372 15.4233 12.5753 14.9278 13.3721C14.4323 14.1689 13.6858 15.0275 12.6884 15.9481C12.605 16.025 12.5105 16.0811 12.4047 16.1163C12.2989 16.1516 12.1826 16.1692 12.0557 16.1692ZM12.0557 11.9904C12.33 11.9904 12.5602 11.8974 12.7461 11.7116C12.932 11.5257 13.0249 11.2955 13.0249 11.0212C13.0249 10.7468 12.932 10.5167 12.7461 10.3308C12.5602 10.1449 12.33 10.052 12.0557 10.052C11.7813 10.052 11.5512 10.1449 11.3653 10.3308C11.1794 10.5167 11.0865 10.7468 11.0865 11.0212C11.0865 11.2955 11.1794 11.5257 11.3653 11.7116C11.5512 11.8974 11.7813 11.9904 12.0557 11.9904Z" fill="#1E1D2B"/>
</g>
</svg>
