<svg width="24" height="24" viewBox="0 0 24 24" fill="none" xmlns="http://www.w3.org/2000/svg">
<mask id="mask0_48_2192" style="mask-type:alpha" maskUnits="userSpaceOnUse" x="0" y="0" width="24" height="24">
<rect width="24" height="24" fill="#D9D9D9"/>
</mask>
<g mask="url(#mask0_48_2192)">
<path d="M12.0019 15.5769C13.1349 15.5769 14.0973 15.1803 14.889 14.3872C15.6807 13.594 16.0765 12.6308 16.0765 11.4977C16.0765 10.3646 15.6799 9.40227 14.8867 8.61061C14.0936 7.81894 13.1304 7.42311 11.9973 7.42311C10.8642 7.42311 9.90185 7.81969 9.11019 8.61286C8.31852 9.40604 7.92269 10.3692 7.92269 11.5023C7.92269 12.6354 8.31927 13.5977 9.11244 14.3894C9.90562 15.1811 10.8688 15.5769 12.0019 15.5769ZM11.9996 14.2C11.2496 14.2 10.6121 13.9375 10.0871 13.4125C9.56209 12.8875 9.29959 12.25 9.29959 11.5C9.29959 10.75 9.56209 10.1125 10.0871 9.58751C10.6121 9.06251 11.2496 8.80001 11.9996 8.80001C12.7496 8.80001 13.3871 9.06251 13.9121 9.58751C14.4371 10.1125 14.6996 10.75 14.6996 11.5C14.6996 12.25 14.4371 12.8875 13.9121 13.4125C13.3871 13.9375 12.7496 14.2 11.9996 14.2ZM12.001 18.5C9.70134 18.5 7.60602 17.8657 5.71499 16.5971C3.82397 15.3285 2.43167 13.6295 1.53809 11.5C2.43167 9.37052 3.82352 7.67149 5.71364 6.40291C7.60374 5.13432 9.6986 4.50003 11.9982 4.50003C14.2978 4.50003 16.3932 5.13432 18.2842 6.40291C20.1752 7.67149 21.5675 9.37052 22.4611 11.5C21.5675 13.6295 20.1757 15.3285 18.2855 16.5971C16.3954 17.8657 14.3006 18.5 12.001 18.5ZM11.9996 17C13.8829 17 15.6121 16.5042 17.1871 15.5125C18.7621 14.5208 19.9663 13.1833 20.7996 11.5C19.9663 9.81667 18.7621 8.47917 17.1871 7.48751C15.6121 6.49584 13.8829 6.00001 11.9996 6.00001C10.1163 6.00001 8.38709 6.49584 6.81209 7.48751C5.23709 8.47917 4.03292 9.81667 3.19959 11.5C4.03292 13.1833 5.23709 14.5208 6.81209 15.5125C8.38709 16.5042 10.1163 17 11.9996 17Z" fill="#1C1B1F"/>
</g>
</svg>
