<svg width="22" height="19" viewBox="0 0 22 19" fill="none" xmlns="http://www.w3.org/2000/svg">
<path d="M14.7731 9.97305L13.6501 8.85C13.8001 8.02178 13.5639 7.27723 12.9414 6.61635C12.319 5.95545 11.5552 5.7 10.6501 5.85L9.52703 4.72695C9.75266 4.62566 9.98407 4.54971 10.2212 4.49907C10.4584 4.44842 10.718 4.4231 11.0001 4.4231C12.1347 4.4231 13.0978 4.81893 13.8895 5.6106C14.6811 6.40226 15.077 7.3654 15.077 8.5C15.077 8.78205 15.0517 9.04486 15.001 9.28845C14.9504 9.53203 14.8744 9.76023 14.7731 9.97305ZM17.9539 13.0846L16.8501 12.05C17.4834 11.5667 18.0459 11.0375 18.5376 10.4625C19.0292 9.8875 19.4501 9.23333 19.8001 8.5C18.9667 6.81666 17.7709 5.47916 16.2126 4.4875C14.6542 3.49583 12.9167 3 11.0001 3C10.5167 3 10.0417 3.03333 9.57508 3.1C9.10841 3.16666 8.65007 3.26666 8.20007 3.4L7.03472 2.23465C7.66677 1.98336 8.31228 1.79811 8.97125 1.67887C9.63022 1.55964 10.3065 1.50002 11.0001 1.50002C13.3437 1.50002 15.4571 2.14617 17.3404 3.43847C19.2238 4.73079 20.5975 6.41796 21.4616 8.5C21.0911 9.39358 20.6125 10.2275 20.026 11.0019C19.4395 11.7762 18.7488 12.4705 17.9539 13.0846ZM18.7616 18.8692L14.7155 14.8538C14.2027 15.0435 13.6344 15.1987 13.0107 15.3192C12.3869 15.4397 11.7167 15.5 11.0001 15.5C8.65009 15.5 6.53664 14.8538 4.65972 13.5615C2.78281 12.2692 1.40909 10.582 0.538574 8.5C0.907808 7.61666 1.38473 6.79262 1.96935 6.02787C2.55397 5.26314 3.19756 4.60001 3.90012 4.03847L1.13087 1.23847L2.18472 0.184647L19.8154 17.8153L18.7616 18.8692ZM4.95395 5.09227C4.42575 5.51279 3.91197 6.01825 3.4126 6.60865C2.91323 7.19903 2.50906 7.82948 2.20007 8.5C3.03341 10.1833 4.22924 11.5208 5.78757 12.5125C7.34591 13.5042 9.08341 14 11.0001 14C11.4552 14 11.9084 13.9615 12.3597 13.8846C12.811 13.8077 13.1937 13.7282 13.5078 13.6461L12.2424 12.35C12.0719 12.4192 11.8744 12.4743 11.6501 12.5153C11.4257 12.5564 11.2091 12.5769 11.0001 12.5769C9.86548 12.5769 8.90234 12.1811 8.11067 11.3894C7.31901 10.5977 6.92317 9.6346 6.92317 8.5C6.92317 8.29743 6.94369 8.08557 6.98472 7.86442C7.02576 7.64326 7.08088 7.44101 7.1501 7.25767L4.95395 5.09227Z" fill="#1E1D2B"/>
</svg>
