<svg width="32" height="32" viewBox="0 0 32 32" fill="none" xmlns="http://www.w3.org/2000/svg">
<mask id="mask0_2_3753" style="mask-type:alpha" maskUnits="userSpaceOnUse" x="0" y="0" width="32" height="32">
<rect width="32" height="32" fill="#D9D9D9"/>
</mask>
<g mask="url(#mask0_2_3753)">
<path d="M4.56724 26.3332C4.34124 26.3332 4.13827 26.2779 3.95834 26.1674C3.7784 26.057 3.63846 25.9114 3.5385 25.7306C3.43452 25.5511 3.37734 25.3567 3.36694 25.1473C3.35654 24.9379 3.41304 24.7305 3.53644 24.5251L14.9508 4.80804C15.0742 4.60267 15.2286 4.45083 15.4141 4.35255C15.5995 4.25423 15.7948 4.20508 16 4.20508C16.2051 4.20508 16.4004 4.25423 16.5859 4.35255C16.7713 4.45083 16.9258 4.60267 17.0492 4.80804L28.4635 24.5251C28.5869 24.7305 28.6434 24.9379 28.633 25.1473C28.6226 25.3567 28.5654 25.5511 28.4614 25.7306C28.3615 25.9114 28.2215 26.057 28.0416 26.1674C27.8617 26.2779 27.6587 26.3332 27.4327 26.3332H4.56724ZM5.9333 24.3332H26.0666L16 6.99988L5.9333 24.3332ZM16 22.7434C16.3051 22.7434 16.5609 22.6402 16.7673 22.4338C16.9737 22.2274 17.0769 21.9717 17.0769 21.6665C17.0769 21.3614 16.9737 21.1056 16.7673 20.8992C16.5609 20.6928 16.3051 20.5896 16 20.5896C15.6948 20.5896 15.4391 20.6928 15.2327 20.8992C15.0263 21.1056 14.9231 21.3614 14.9231 21.6665C14.9231 21.9717 15.0263 22.2274 15.2327 22.4338C15.4391 22.6402 15.6948 22.7434 16 22.7434ZM16.0004 19.2563C16.2839 19.2563 16.5213 19.1605 16.7128 18.9688C16.9042 18.7771 16.9999 18.5397 16.9999 18.2563V13.5896C16.9999 13.3063 16.9041 13.0688 16.7123 12.8771C16.5206 12.6855 16.283 12.5896 15.9995 12.5896C15.7161 12.5896 15.4786 12.6855 15.2872 12.8771C15.0957 13.0688 15 13.3063 15 13.5896V18.2563C15 18.5397 15.0959 18.7771 15.2876 18.9688C15.4794 19.1605 15.717 19.2563 16.0004 19.2563Z" fill="white"/>
</g>
</svg>
