<svg width="246" height="38" viewBox="0 0 246 38" fill="none" xmlns="http://www.w3.org/2000/svg">
<path d="M10.848 33.064L0.48 0.759997H6.048L14.208 26.2L22.272 1.24H28.608L36.672 26.2L44.832 0.759997H50.4L40.032 33.064H33.504L25.44 7.864L17.376 33.064H10.848ZM84.4463 10.696V33.064H79.5983L79.2623 31C78.0623 32.248 76.3823 33.064 74.3183 33.064H61.2623C54.5903 33.064 52.2863 29.656 52.2863 24.472V19.288C52.2863 14.104 54.5903 10.696 61.2623 10.696H74.3183C76.1903 10.696 77.7743 11.368 78.9263 12.424V10.696H84.4463ZM78.9263 24.28V19.48C78.9263 17.176 76.9583 15.688 73.9823 15.688H61.6463C58.6703 15.688 57.6623 17.176 57.6623 19.48V24.28C57.6623 26.584 58.6703 28.072 61.6463 28.072H73.9823C76.9583 28.072 78.9263 26.584 78.9263 24.28ZM91.6481 37.864V32.872H112.384C115.36 32.872 116.368 31.384 116.368 29.08V26.392C115.216 27.4 113.632 28.072 111.76 28.072H99.1841C92.5121 28.072 90.2081 24.664 90.2081 19.48V10.696H95.7281V19.288C95.7281 21.592 96.7361 23.08 99.7121 23.08H111.424C114.304 23.08 116.272 21.688 116.368 19.48V10.696H121.888V29.272C121.888 34.456 119.584 37.864 112.912 37.864H91.6481ZM151.661 14.44V19.432H128.141V14.44H151.661ZM197.256 33.064H171.864C162.84 33.064 157.416 27.016 157.416 16.936C157.416 6.856 162.84 0.759997 171.864 0.759997H196.536V5.752H173.016C166.728 5.752 162.792 10.072 162.792 16.936C162.792 23.8 166.728 28.072 173.016 28.072H191.736V15.688H176.28V10.696H197.256V33.064ZM229.868 33.064H217.484C207.98 33.064 202.076 26.776 202.076 16.936C202.076 7.096 207.98 0.759997 217.484 0.759997H229.868C239.372 0.759997 245.276 7.096 245.276 16.936C245.276 26.776 239.372 33.064 229.868 33.064ZM229.196 28.072C235.964 28.072 239.9 23.8 239.9 16.936C239.9 10.072 235.964 5.752 229.196 5.752H218.156C211.388 5.752 207.452 10.072 207.452 16.936C207.452 23.8 211.388 28.072 218.156 28.072H229.196Z" fill="#59CAD4"/>
</svg>
